<svg xmlns="http://www.w3.org/2000/svg" viewBox="0 0 1162 692">
  <g fill="#1C1D30" fill-rule="evenodd">
    <path d="M250.238 197L1162 487H0z"/>
    <path d="M978.184 197L1 487h1161z"/>
    <path d="M622.728 87L0 487h1161z"/>
    <path fill-rule="nonzero" d="M503.984 176.003l.016.557s-8.296 23.173-7.415 39.09c.881 15.921 7.415 41.086 7.415 41.086L477 259l4.236-14.7s4.766-18.927 4.766-22.108c0-3.18-4.236-32.195-4.236-33.61 0-1.383-2.956-11.553-3.09-12.011-.584 1.042-.882 1.744-.882 1.744s-12.88 16.55-20.837 2.982l1.405-7.486s-23.883 18.69-19.904-11.934c0 0-14.988-17.084.702-22.7 0 0 2.81-24.104 17.797-14.276 0 0 2.574-18.404 18.73-15.87 0 0 14.397-21.87 30.671-4.022 0 0 14.454-2.808 17.882 13.338 0 0 14.667-3.51 19.348 17.084 0 0 12.177 10.53 0 23.166 0 0 2.512 25.974-19.348 14.04 0 0-3.802 22.468-20.256 3.366zm-20.999-5.016c-1.978 1.811-3.41 3.994-4.263 5.503l4.263-5.503zM144.984 295.003l.016.557s-8.296 23.173-7.415 39.09c.881 15.921 7.415 41.086 7.415 41.086L118 378l4.236-14.7s4.766-18.927 4.766-22.108c0-3.18-4.236-32.195-4.236-33.61 0-1.383-2.956-11.553-3.09-12.011a19.842 19.842 0 0 0-.882 1.744s-12.88 16.55-20.837 2.982l1.405-7.486s-23.883 18.69-19.904-11.934c0 0-14.988-17.084.702-22.7 0 0 2.81-24.104 17.797-14.276 0 0 2.574-18.404 18.73-15.87 0 0 14.397-21.87 30.671-4.022 0 0 14.454-2.808 17.882 13.338 0 0 14.667-3.51 19.348 17.084 0 0 12.177 10.53 0 23.166 0 0 2.512 25.974-19.348 14.04 0 0-3.802 22.468-20.256 3.366zm-20.999-5.016c-1.978 1.811-3.41 3.994-4.263 5.503l4.263-5.503zM335.055 117l-20.616 30.657s-14.755 12.391 1.953 15.217l-19.75 26.741s-4.995 11.09 13.234 5.873L283.4 228.103s-2.166 13.048 17.796 1.09l-27.555 33.482s-2.609 8.91 23.436 0L268 298.982l25.442-1.735s40.039-15.926 111.804 1.735c0 0 19.697 1.037 0-12.825l-20.5-15.334s-9.928-13.693 12.367-3.746c0 0 16.93 2.931-.654-14.19-17.585-17.123-23.278-19.24-23.278-19.24s-11.881-13.375 15.135-.655c0 0 19.855 2.444-14.807-27.726l-9.928-12.72 11.882 3.916-16.761-30.985-1.796-2.444 6.675-2.773L335.055 117zM706.055 0l-20.616 30.657s-14.755 12.391 1.953 15.217l-19.75 26.741s-4.995 11.09 13.234 5.873L654.4 111.103s-2.166 13.048 17.796 1.09l-27.555 33.482s-2.609 8.91 23.436 0L639 181.982l25.442-1.735s40.039-15.926 111.804 1.735c0 0 19.697 1.037 0-12.825l-20.5-15.334s-9.928-13.693 12.367-3.746c0 0 16.93 2.931-.654-14.19-17.585-17.123-23.278-19.24-23.278-19.24s-11.881-13.375 15.135-.655c0 0 19.855 2.444-14.807-27.726l-9.928-12.72 11.882 3.916-16.761-30.985-1.796-2.444 6.675-2.773L706.055 0zM1051.44 205l-15.816 23.414s-11.318 9.464 1.499 11.622l-15.15 20.423s-3.833 8.47 10.151 4.485l-20.311 24.91s-1.661 9.964 13.651.832l-21.138 25.571s-2 6.805 17.979 0L1000 343.987l19.518-1.326s30.714-12.163 85.766 1.326c0 0 15.11.792 0-9.796l-15.725-11.71s-7.616-10.459 9.487-2.862c0 0 12.987 2.239-.502-10.838-13.49-13.076-17.857-14.693-17.857-14.693s-9.115-10.216 11.61-.5c0 0 15.232 1.866-11.359-21.176l-7.616-9.714 9.115 2.99-12.858-23.664-1.377-1.867 5.12-2.118L1051.44 205z"/>
    <path d="M1.23 487H1160v-23.64a79.24 79.24 0 0 1 2 17.64c0 116.532-259.899 211-580.5 211C266.42 692 9.969 600.758 1.23 487z"/>
  </g>
</svg>
