<svg xmlns="http://www.w3.org/2000/svg" viewBox="0 0 1286 671">
  <g fill="none" fill-rule="evenodd">
    <path fill="#181929" d="M276.096 186.611l1009.621 320.733H-1z"/>
    <path fill="#181929" d="M1081.904 186.611L0 507.344h1285.42z"/>
    <path fill="#181929" d="M689 65.117L-1 507.344h1286.42z"/>
    <path fill="#181929" d="M557.982 164.24l.018.615s-9.218 25.62-8.239 43.217c.979 17.603 8.239 45.425 8.239 45.425L528 256l4.706-16.251s5.296-20.926 5.296-24.443c0-3.517-4.706-35.595-4.706-37.159 0-1.53-3.285-12.773-3.433-13.28a21.893 21.893 0 0 0-.98 1.928s-14.311 18.298-23.153 3.297l1.561-8.277s-26.537 20.664-22.116-13.194c0 0-16.652-18.887.78-25.096 0 0 3.123-26.65 19.775-15.784 0 0 2.86-20.347 20.811-17.546 0 0 15.997-24.178 34.08-4.446 0 0 16.059-3.104 19.868 14.746 0 0 16.296-3.88 21.497 18.888 0 0 13.531 11.642 0 25.612 0 0 2.791 28.717-21.497 15.523 0 0-4.225 24.84-22.507 3.722zm-23.332-5.546c-2.198 2.002-3.79 4.415-4.737 6.084l4.737-6.084zM199.982 293.24l.018.615s-9.218 25.62-8.239 43.217c.979 17.603 8.239 45.425 8.239 45.425L170 385l4.706-16.251s5.296-20.926 5.296-24.443c0-3.517-4.706-35.595-4.706-37.159 0-1.53-3.285-12.773-3.433-13.28-.65 1.152-.98 1.928-.98 1.928s-14.311 18.298-23.153 3.297l1.561-8.277s-26.537 20.664-22.116-13.194c0 0-16.652-18.887.78-25.096 0 0 3.123-26.65 19.775-15.784 0 0 2.86-20.347 20.811-17.546 0 0 15.997-24.178 34.08-4.446 0 0 16.059-3.104 19.868 14.746 0 0 16.296-3.88 21.497 18.888 0 0 13.531 11.642 0 25.612 0 0 2.791 28.717-21.497 15.523 0 0-4.225 24.84-22.507 3.722zm-23.332-5.546c-2.198 2.002-3.79 4.415-4.737 6.084l4.737-6.084zM428.403 106l-22.875 33.857s-16.371 13.686 2.168 16.806l-21.914 29.533s-5.544 12.248 14.683 6.486l-29.379 36.02s-2.402 14.41 19.746 1.203l-30.574 36.978s-2.895 9.84 26.004 0L354 306.98l28.23-1.917s44.427-17.589 124.056 1.917c0 0 21.856 1.145 0-14.165l-22.746-16.934s-11.016-15.123 13.723-4.138c0 0 18.785 3.238-.727-15.672s-25.828-21.247-25.828-21.247-13.184-14.772 16.793-.724c0 0 22.032 2.7-16.43-30.62l-11.015-14.048 13.183 4.324-18.598-34.22-1.992-2.699 7.407-3.062L428.403 106zM779.403 0l-22.875 33.857s-16.371 13.686 2.168 16.806l-21.914 29.533s-5.544 12.248 14.683 6.486l-29.379 36.02s-2.402 14.41 19.746 1.203l-30.574 36.978s-2.895 9.84 26.004 0L705 200.98l28.23-1.917s44.427-17.589 124.056 1.917c0 0 21.856 1.145 0-14.165l-22.746-16.934s-11.016-15.123 13.723-4.138c0 0 18.785 3.238-.727-15.672s-25.828-21.247-25.828-21.247-13.184-14.772 16.793-.724c0 0 22.032 2.7-16.43-30.62l-11.015-14.048 13.183 4.324-18.598-34.219-1.992-2.7 7.407-3.062L779.403 0zM1163.95 196l-17.509 25.94s-12.531 10.486 1.66 12.876l-16.774 22.628s-4.243 9.384 11.239 4.97l-22.488 27.596s-1.839 11.04 15.115.922l-23.403 28.331s-2.216 7.54 19.904 0L1107 349.985l21.609-1.468s34.005-13.476 94.956 1.468c0 0 16.729.878 0-10.852l-17.41-12.975s-8.433-11.587 10.503-3.17c0 0 14.379 2.48-.556-12.007-14.935-14.488-19.77-16.279-19.77-16.279s-10.091-11.318 12.854-.555c0 0 16.864 2.068-12.576-23.46l-8.432-10.763 10.092 3.313-14.236-26.218-1.525-2.068 5.67-2.346L1163.95 196z"/>
    <path fill="#10111E" d="M689 594.646L504.934 670.1l-178.487-75.454-164.14 10.808L-1 507.344h1286.42l-61.877 98.11-176.59-16.732L898.973 670.1z"/>
  </g>
</svg>
