<svg xmlns="http://www.w3.org/2000/svg" width="515" height="559">
  <g fill="none" fill-rule="evenodd">
    <path fill="#B88162" fill-rule="nonzero" d="M506 389.141l2-.141v40.134C508 467.72 480.924 499 447.524 499h-6.048c-33.4 0-60.476-31.28-60.476-69.866v-31.151h2v31.151c0 37.54 26.25 67.866 58.476 67.866h6.048C479.75 497 506 466.675 506 429.134v-39.993zM6 390.747l-4.486 5.2L0 394.641 7.454 386l7.366 8.65-1.523 1.296L8 389.726v39.408C8 466.674 34.25 497 66.476 497h6.048C104.75 497 131 466.675 131 429.134v-38.387l-4.486 5.2-1.514-1.306 7.454-8.641 7.366 8.65-1.523 1.296-5.297-6.22v99.408c0 37.54 26.25 67.866 58.476 67.866h6.048C229.75 557 256 526.675 256 489.134V359.983h2v129.151c0 37.54 26.25 67.866 58.476 67.866h6.048C354.75 557 381 526.675 381 489.134v-98.387l-4.486 5.2-1.514-1.306 7.454-8.641 7.366 8.65-1.523 1.296-5.297-6.22v39.408c0 37.54 26.25 67.866 58.476 67.866h6.048C479.75 497 506 466.675 506 429.134v-38.387l-4.486 5.2-1.514-1.306 7.454-8.641 7.366 8.65-1.523 1.296-5.297-6.22v39.408C508 467.72 480.924 499 447.524 499h-6.048c-28.048 0-51.637-22.06-58.476-51.98v42.114C383 527.72 355.924 559 322.524 559h-6.048c-29.64 0-54.3-24.633-59.476-57.145C251.823 534.367 227.164 559 197.524 559h-6.048c-33.4 0-60.476-31.28-60.476-69.866v-42.113C124.161 476.94 100.572 499 72.524 499h-6.048C33.076 499 6 467.72 6 429.134v-38.387z"/>
    <path fill="#B78061" fill-rule="nonzero" d="M256 0h2v33h-2V0zm-7.421 48l1 1.732-28.58 16.5-1-1.732 28.58-16.5zm18.921-1l-1 1.732 28.579 16.5 1-1.732L267.5 47zM256 55h2v111h-2V55z"/>
    <path stroke="#B78061" stroke-width="2" d="M257 54c5.523 0 10-4.477 10-10s-4.477-10-10-10-10 4.477-10 10 4.477 10 10 10z"/>
    <path fill="#B78061" fill-rule="nonzero" d="M88 125h2v33h-2v-33zm-8.421 48l1 1.732-28.58 16.5-1-1.732 28.58-16.5zm19.921 0l-1 1.732 28.579 16.5 1-1.732L99.5 173zM88 180h2v131h-2V180z"/>
    <path stroke="#B78061" stroke-width="2" d="M89 179c5.523 0 10-4.477 10-10s-4.477-10-10-10-10 4.477-10 10 4.477 10 10 10z"/>
    <path fill="#B78061" fill-rule="nonzero" d="M423 125h2v33h-2v-33zm-8.421 48l1 1.732-28.58 16.5-1-1.732 28.58-16.5zm19.921 0l-1 1.732 28.579 16.5 1-1.732L434.5 173zm-11.5 7h2v131h-2V180z"/>
    <path stroke="#B78061" stroke-width="2" d="M424 179c5.523 0 10-4.477 10-10s-4.477-10-10-10-10 4.477-10 10 4.477 10 10 10z"/>
    <g stroke="#B88162" stroke-width="2">
      <path d="M184 248.497V360h145V248.497l-72.5-44.325z"/>
      <path d="M184 228.497V360h145V228.497l-72.5-44.325z"/>
      <path d="M184 208.497V360h145V208.497l-72.5-44.325z"/>
    </g>
    <g stroke="#B88162" stroke-width="2">
      <path d="M329 309.386v50.45h95v-50.45l-47.5-27.233z"/>
      <path d="M329 289.386v70.45h95v-70.45l-47.5-27.233z"/>
      <path d="M329 269.386v90.45h95v-90.45l-47.5-27.233z"/>
    </g>
    <g stroke="#B88162" stroke-width="2">
      <path d="M89 309.386v50.45h95v-50.45l-47.5-27.233z"/>
      <path d="M89 289.386v70.45h95v-70.45l-47.5-27.233z"/>
      <path d="M89 269.386v90.45h95v-90.45l-47.5-27.233z"/>
    </g>
  </g>
</svg>
