<svg xmlns="http://www.w3.org/2000/svg" xmlns:xlink="http://www.w3.org/1999/xlink" width="15" height="15">
  <g fill="none" fill-rule="evenodd" transform="translate(-626)">
    <g stroke="#F7C5A9" opacity=".1">
      <path d="M1313-389L24 900M1313-325L24 964M1313-261L24 1028M1313-198L24 1091M1313-134L24 1155M1313-70L24 1219M1313-772L24 517M1313-708L24 581M1313-644L24 645M1313-581L24 708M1313-517L24 772M1313-453L24 836M1313-6L24 1283M1313-421L24 868M1313-357L24 932M1313-293L24 996M1313-230L24 1059M1313-166L24 1123M1313-102L24 1187M1313-804L24 485M1313-740L24 549M1313-676L24 613M1313-613L24 676M1313-549L24 740M1313-485L24 804M1313-38L24 1251M1313-374L24 915M1313-310L24 979M1313-246L24 1043M1313-183L24 1106M1313-119L24 1170M1313-55L24 1234M1313-757L24 532M1313-693L24 596M1313-629L24 660M1313-566L24 723M1313-502L24 787M1313-438L24 851M1313 9L24 1298M1313-406L24 883M1313-342L24 947M1313-278L24 1011M1313-215L24 1074M1313-151L24 1138M1313-87L24 1202M1313-789L24 500M1313-725L24 564M1313-661L24 628M1313-932L24 357M1313-868L24 421M1313-964L24 325M1313-900L24 389M1313-836L24 453M1313-917L24 372M1313-853L24 436M1313-949L24 340M1313-885L24 404M1313-821L24 468M1313-1090L24 199M1313-1026L24 263M1313-1122L24 167M1313-1058L24 231M1313-994L24 295M1313-1075L24 214M1313-1011L24 278M1313-1107L24 182M1313-1170L24 119M1313-1202L24 87M1313-1138L24 151M1313-1155L24 134M1313-1187L24 102M1313-1043L24 246M1313-979L24 310M1313-598L24 691M1313-534L24 755M1313-470L24 819M1313-23L24 1266"/>
    </g>
  </g>
</svg>
