<svg xmlns="http://www.w3.org/2000/svg" width="1286" height="740">
  <g fill="none" fill-rule="evenodd">
    <g fill="#212234" fill-rule="evenodd">
      <path d="M1132.848 447.825l-3.265 11.999-17.71 5.847-5.301-6.082-2.572.69 4.806 18.137 7.194.788 9.597 3.553v3.552l4.396-.788 6.403-8.667v-7.091l3.604-7.092 4 .788-4.806-9.856-.735-6.345zM1230.51 481.303l-.51 34.02 4.856-.265 6.388-7.53 5.366.264 3.449 3.118 1.145 9.605 10.982 5.846 2.814-1.044v-3.508l-8.816-7.405-4.345-10.134 3.449-1.684-2.552-5.582-5.105-.125-1.283-5.972-13.534-9.215zM237 310.625l6.729 21.239-3.134 1.76.348 4.217 5.921 4.566v8.448l7.315 7.038-3.135-20.751-4.18-13.726 1.045-9.495 3.483.349 1.394 3.169-1.394 8.085 18.113 35.525v12.665l14.629 17.23 16.023 7.388 6.618-3.868 9.405 7.736 5.573-5.627-2.439-6.34 8.012-2.458 2.438 1.41 2.438-2.457h3.832L343 374.412l-3.483-3.17-13.585 3.17-3.134 9.146-8.012 1.41-9.404-3.867-4.18-13.364 3.163-16.854-6.465-4.036-3.079-16.184-2.578-1.103-4.709 4.79-5.406-2.891-2.118-10.794-21.414-2.248-11.063-8.337zM765.656 197.213l-7.704-.28-4.883 3.035-.069 2.252 3.164 3.035 9.836 1.692zM703.716 312.98l-5.669-1.898-23.592 4.42-5.14 3.896 3.14 16.174-9.379.375-5.641 9.05L644 348.213l.042 6.583 44.252 33.75 7.544.637L721 369.57l-2.515-3.16-4.724-.637-2.834-4.741V341.42l-1.89-1.898.32-5.06-5.03-5.058-.625-5.378 2.195-1.58-.944-5.696z"/>
      <path d="M668.163 320.093h-15.985l-3.128 7.036-7.211 3.518-5.951 16.314-11.598 7.036L608 381.173l15.985-.323.623-7.988h4.069v-10.876h14.103l.318-14.072 13.481-3.195 5.646-9.28 8.775-.321z"/>
      <path d="M608 381.63l3.061 3.922-.632 16.949 4.452-3.136 3.174-.633 4.452 1.568 5.083 6.907 4.775-3.137 23.214-.317-5.73-37.985 6.151-.028-11.459-8.598.014 5.585-14.507.014-.07 10.662-4.171-.013-.534 7.869z"/>
      <path d="M615.169 400.902l-5.517 4.114-1.26 2.302-.392 2.3 2.03 1.497 6.777-.101 4.355-1.208.49 2.2-.392 2.906 4.159 2.1.868 1.007 5.517.202.196-2.503-5.041-6.214-5.615-7.811-3.486-1.496z"/>
      <path d="M611.179 411.678l-.179 1.536 9.519-.138.481-1.426-.206-1.44-2.738 1.122zM611 415.217l1.679 4.005.934-2.475 11.387 1.17-4.928-2.487z"/>
      <path d="M613 420.414l1.825 3.815 5.123-4.655.052-1.432-6.035-.923zM616 425.719l4.085 6.62 5.321-4.866 5.455-.255 4.542 6.352 3.856 2.674 1.451-2.971 1.29-.764-.094-6.536-2.566-7.752-7.874.919-9.742-.82-.054 2.63z"/>
      <path d="M620 432.828l7.588 7.42 5.412-6.645-3.384-5.37-4.66.477zM629 441.139l15 10.125-.355-7.67-4.536-5.393-4.426-3.96z"/>
      <path d="M646.389 451.264l5.869-4.156 7.296-1.276 7.446 1.605-3.799-5.747-1.11-3.512 1.11-10.383-6.65.315-3.017-2.88-6.336.164-3.017.48.316 7.023-1.591.645-1.906 3.51 4.909 5.749zM628 408.457l4.258-2.917 23.668-.138-5.474-38.068 6.248-.18 30.235 23.07 4.065.58-1.535 12.829-19.009 1.728-14.668 10.947-2.668 7.492-10.189.429-2.599-7.48-7.811.554.304-2.446z"/>
      <path d="M671.634 406.61l5.063-.405 8.303 11.8-7.705 5.844-5.577-1.44-7.497.098-1.21 4.418-6.286.307L655 424.87l2.225-7.186zM686.655 417.219l3.53-.083 3.184-4.811 5.344-.962 5.689 3.5 12.141.348 9.386-3.848 3.53-3.054.263-4.016 6.548-6.652 1.73-14.684-4.305-9.092-11.019-2.705-25.5 20.024-3.613-.348-1.55 13.903-13.013 1.31z"/>
      <path d="M663 438.154l1.556 3.686 4.055 6.42 2.25-.084 6.139-3.518-.431-20.03-4.75-1.401-6.652.182zM678.329 443.253L682 441.12l-.082-14.061-2.384-3.832-1.534 1.277z"/>
      <path d="M682.679 441.25h3.154l.179-8.281 3.988-5.352-.179-9.314-3.616-.082-6.205 4.485 2.589 4.567z"/>
      <path d="M687 441.69l5.46.267 6.588 7.419 3.204.886 2.507-1.238 3.816-.535 1.296-5.378 5.195-3.448 5.627-.268L731 420.237l-.167-4.322-4.764-3.702-9.527 4.237-12.744-.183-6.073-3.885-4.332.97-2.256 3.97-.167 11.206-3.636 5.208zM705.283 313.196l7.818-3.116 2.573 1.649.099 2.01-1.202 1.552.184 2.752 1.202.643v4.945l-1.386 2.29.184 1.468 5.245 1.83-4.227 6.496-1.654-.098-.283 5.224-1.838.28-1.569-1.37.367-5.308-5.146-4.945-.65-4.303 2.488-1.927z"/>
      <path d="M713.07 341.58l2.17-.355.64-4.936h1.085l4.438-7.184 10.949 3.14 2.991 4.579 10.768 4.853 5.607-2.331-.543-2.33-2.448-2.331.278-1.618 3.979-3.317h7.874l2.991 3.948 6.33.905.821 50.575-4.702-.178-28.409-14.56-3.075 1.714-11.672-2.88-3.172-4.126-4.619-.631L713 360.39zM771 334.462l3.713.097 7.233 1.986 3.435.097 4.256-3.532h1.989l3.616 1.987h4.576l.82-.055 2.893 8.249.821 2.663.765 3.987-1.363.993-2.351-1.172-2.712-8.774-2.448-.18-.18 2.98 1.627 5.16 13.032 16.002.278 6.87-3.797 4.346-35.661-.4z"/>
      <path d="M730.536 407.939l.184-4.052 6.678-6.331 1.789-15.547-4.452-8.296 3.114-1.552L768 387.475l-.183 15.025-5.312 4.409v7.746l3.48 6.565h-6.143l-10.172 9.806-.268 2.967-7.51-.096-.098 1.346-4.283-.55-2.931-5.397-2.198-1.058.282-1.648 2.761-2.06v-9.641l-3.818-.577-4.607-3.338 3.536-3.035zM809.062 428.196l-4.104-6.934-.43-5.044-.986.189-.267 1.554-5.378 7.904-4.291-2.06-4.281 3.608-8.855-.512-3.919-3.151-5.623 2.896-.212 1.928-1.716 1.039 17.177 17.786 9.356.535 1.365 2.09 13.386.238.109-3.016 1.144-2.091 4.463-.575-5.563-8.121h-4.098l-1.046-5.767 3.289-1.457z"/>
      <path d="M812.885 373.162l-5.151 5.208-36.022-.323.39 9.196-3.433-.098-.251 16.557-5.208 4.494-.21 6.913 3.758 7.433 4.117 2.435-.063.58 5.612-2.881 4.282 3.428 7.872.453 4.548-3.82 4.031 1.926 4.537-6.645.382-2.206 3.458-.66.537 6.258 3.458 5.822 8.382-18.071v-10.986L824 390.98zM709 447.842l4.519 4.095-.323 6.336 24.783-.567 2.021-2.241-7.101-7.54-1.052-2.725 4.518-8.342-3.073-5.533-2.582-1.37v-2.808l2.989-1.923.168-8.743-2.371-.263-.042 4.593-10.413 19.16-6.371.318-4.365 2.96z"/>
      <path d="M819.352 407.947l-.352-8.271 5.574-6.488 1.506 1.152 2.745 9.156L842 413.283l-2.393 2.935-9.642-8.271zM839.709 416.655l-.709 4.57 4.925-.082.075-6.718-1.803-1.211z"/>
      <path d="M809.087 430.919l10.076-22.711 10.008.056 8.872 7.809-.622 6.435h6.879l.706 3.869 11.129 6.743 6.865.35-13.053 14.203-17.925 5.593h-4.443l-7.917-6.841-3.128-1.332-6.063-9.043-4 .056-.471-4.15z"/>
      <path d="M845 421.288l5.663 3.893 1.68-.084 14.061-4.874 1.596 5.196-1.124 4.383-3.04 2.437-7.593-.49-10.868-6.736zM879 413.39l3.169 2.828 4.284-2.068 1.547-.416-1.964-1.521-3.763.89z"/>
      <path d="M867.752 419.553l6.088-2.334 2.16 1.292-.237 5.389-5.615 15.945-30.386 32.446-3.525-2.417-.237-13.695 4.57-5.236 9.697-2.986 14.225-14.973 3.72-3.306 1.045-4.833zM733.879 448.104l6.401 7.165 2.528-3.383 4.024.17.866-3.298 3.956-2.56 8.214 5.858 4.739-4.861 18.393.838-17.06-18.224 2.294-1.478.315-3.213-3.873-1.891h-5.687l-9.162 9.397-.316 3.866-7.266-.241-.234 1.649-4.739-.498-4.272 8.4zM700 466.14l1.716-.858 1.284 1.036-1.284 1.968-1.552-.607zM703 460.704l2.996-.43 1.004 1.629-1.489 1.376-1.489-.177zM708.681 452.663l-.681 2.612 2.044.995 1.956-1.313-.681-2.692zM722.082 460.428l-.17 3.459-8.011-.167-4.901 9.266 11.52 12.322 2.855-2.334-.085-2.417-1.96-.89v-1.694l4.417-2.736 3.921 2.903 4.332.083-.085-14.572-6.861-.32-.085-3.056z"/>
      <path d="M714.079 460.275l-.079 2.578 6 .426-.079-2.911zM727.529 459.724l-.083 1.988 6.592.165.234 17.015-6.026-.165-3.489-2.701-2.702 1.509-.124.754 1.392.672.4 3.496-3.723 3.18.8 1.673 4.123-3.18h1.986l.634 1.905 2.62 1.11 8.412-7.074-.166-5.17 1.751-4.208 5.392-3.976L747 453.266l-3.834.014-4.44 6.046z"/>
      <path d="M722 488.216l2.18 3.1 2.82-2.922-.827-3.031-.702-.055z"/>
      <path d="M725 491.889l14.262-.252 2.892 4.156-.111 3.065 1.065.98h7.083l2.034-4.045h2.891l1.176 1.204 3.97-.112 1.176 14.107 6.861.224v1.09l18.44 8.412.858 1.638h3.86l-.429-5.906-6.972-3.387.429-4.478 3.001-7.11 6.862-.224-5.893-19.79.11-8.41 9.324-14.75.111-2.072-1.397-.77.055-4.002-1.701-.154-1.716-2.211-28.151-1.288-5.16 5.08-8.452-5.626-2.975 1.848-2.158 18.375-5.34 4.17-1.604 3.696.29 5.472-9.628 7.963-2.559-1.176.346 1.526z"/>
      <path d="M793.237 469.287l3.763 3.807-.161 4.07-5.839.133V472.8zM791.243 478.414l5.757-.115-1.497 4.8-1.456 1.208h-1.78L791 481.059z"/>
      <path d="M793 469.335l4.06 3.957 2.546-1.686 6.887-1.17 1.179.125.442-2.717 3.886-8.5-3.269-7.08-10.599.07-.067 2.913 1.42 1.42-.214 2.914z"/>
      <path d="M811.329 450.43l3.72 7.182-4.462 9.256-.587 2.809 22.28 13.628 6.909-10.737-3.497-2.808-.07-14.141 4.378-4.732-6.979 2.297-5.273.069-8.251-6.89-2.602-1.107-4.825.443-.853 1.41zM810.618 513.344L835 510.366l-5.485-10.576-.293-10.131 1.772-4.842-23.195-14.53-7.272 1.198-2.526 1.865-.223 4.244-1.633 5.887-1.703 2.017-2.442.223 4.675 16.157 7.635 3.576 5.261.153z"/>
      <path d="M761 532.407l4.439 6.133 6.875.418 2.437 1.338 7.198.083 6.203-8.655 17.336-7.721L807 517.2l-2.016-9.742-9.046-5.13-6.036.419-3.01 6.634.084 3.025 7.113 3.442.42 7.485-6.119.334-1.512-2.522-17-7.22-.504 5.547-8.038.25z"/>
      <path d="M724.381 492.556l4.784 17.926-.112 5.66-7.001 7.549L721 535.956l26.937.24 8.755 3.182 7.225-.943-4.209-5.295.014-15.124 8.278-.352v-5.9l-6.72-.282-1.347-13.97-2.834.043-1.529-1.38-1.67.085-2.217 4.309h-8.53l-1.978-2 .589-2.83-2.329-3.422zM806.395 523.804l4.239 4.46-.081 5.709.818 2.4 5.629-6.12-.654-7.78-3.013-2.32-2.685-13.653-4.648-.165 2.113 9.839z"/>
      <path d="M797.831 572.326l3.747 3.099 8.831-5.364 1.421-7.961v-13.145l14.166-11.56 2.424.083 8.58-8.211-1.337-16.924-22.747 2.862.669 5.113 3.914 3.016.919 9.212-7.661 7.46-1.839-4.181.335-5.53-4.416-4.78-10.837 5.03 10.085 5.113.334 14.909-6.672 9.879z"/>
      <path d="M775.253 542.715l12.603 14.23 9.667 2.459L804 549.247l-.506-13.458-10.51-5.423-3.948 1.784-5.887 8.977-8.149-.084zM735.524 583.306l4.651.328 2.736 2.723 6.484.082 1.583-18.142V556.42l4.151-.821 1.583-12.451 10.553-.328L771 539.77l-6.318-.247-8.553 1.15-9.22-3.298H721l.666 7.252 8.637 12.533-1.5 6.43.084 3.38z"/>
      <path d="M752 569.439l2.974.927-.415 8.642 3.057.422 7.027-6.436 8.438.928 2.24-5.762L786 558.254l-12.823-14.994-.166-2.46-1.411-.421-3.886 3.64-10.098.253-1.411 12.787-3.97.928zM797.195 572.42l-3.632.576-1.563 4.038 2.778 2.396h3.372l2.85-3.874zM778.25 588.789l4.284-3.351 2.022.085 2.444 3.095-.253 3.094-4.115 1.54v1.197l-4.536-.256-1.096-3.351z"/>
      <path d="M787.76 558.402l-10.986 10.072-2.614 6.223-8.706-1.076-7.245 6.388-4.812-.469.39-8.83-1.71-.594-1.197 18.061-8.539-.083-2.572-3.007-3.769-.042 3.435 9.783 6.133 5.753-4.38 5.064 2.836 6.347 6.564 2.483 5.23-4.415 14.977.083 1.07-1.325 6.648-1.159L801 585.445l-.083-6.995-2.406 3.09h-3.602l-4.38-3.642 2.224-5.491 3.825-.773-.348-11.286-8.47-1.946zm-5.27 25.526l2.1-.083 3.407 3.67-.097 4.25-3.991 2-.25 1.407-6.092.07-1.905-4.554 1.738-3.339 5.09-3.421zM491.891 66.414L490 69.44l3.407 3.416-1.516 3.416 4.924 6.442 6.05-1.896 7.941-.753 9.082 9.858 6.05 16.3-4.91 10.234 6.801-1.143 3.783 2.273.376 4.936-8.317.376 4.534 4.546 5.674 1.143-12.475 16.676-1.516 10.235 2.642 8.338-1.891 4.936 3.407 10.61 6.426 7.21 1.891-.377 4.159-1.143.375 6.065 2.643 3.793 4.909-.376 3.783-14.028 11.349-14.027 17.023-6.818 10.584-13.274 4.91 2.273h10.208l8.317-8.34 10.208-4.168 1.141-6.442-6.426-5.69-5.674-1.895-3.032-7.962 7.19-4.17 11.349 6.067 3.783-4.17-6.05-3.416 12.865-17.443-2.267-7.585-6.05-.377 2.267-6.818 7.566-3.416L653 59.205l-4.534-4.922-17.399 1.52-9.082 9.105 5.299-11.754-6.05-1.52-3.407 6.065-4.909-4.17-13.616 1.52 3.783-6.064 22.308-.753-5.674-7.585-24.2-4.546-9.833 1.52.376 4.936-10.209-3.416.376-3.417-7.191 1.52-1.516 3.793 7.566 2.649-7.941 5.689-5.675-6.442-7.941-2.273-1.14 6.066h-7.942l-3.032-6.442-12.475-1.896-6.801 3.416-.375 4.545-8.693-1.143-5.299 2.273.376 5.312v2.65l-9.833 1.896-4.534-3.026-3.032 4.922 4.534 4.936 9.457-1.143.751 3.039-7.19 3.417z"/>
      <path d="M521.888 125.84L524 129.45l-1.063 4.403h-2.112L518 130.244l.7-2.798zM616.347 116.83l6.653 1.844-.389 5.165-7.041-3.322-1.57-1.843zM1103.423 592.323l-.489 35.184-5.445 3.964-.489 3.466 7.428 4.949 18.333-3.466h9.411l3.463-4.963 20.805-3.964 14.856 4.464-.991 5.947 1.983 5.947 11.393-1.983.489 2.967-7.428 5.448 2.471 1.982 5.446-1.982-1.48 16.358 10.402 7.929 5.948-1.982 2.974 2.967 17.342-2.482 16.35-26.27 5.949-1.483 11.882-21.806 2.974-18.825-7.428-9.413 2.974-1.983-5.948-18.34-6.437-4.464.991-24.772-5.948-4.464-1.48-13.877h-2.974l-9.914 32.702-5.445.499-12.385-12.393 6.939-18.34-12.873-2.482-14.368 3.965-3.966 11.395-6.436 1.484-.489-7.93-26.25 15.859.488 5.947-3.965 5.448h-9.914l-21.307 8.914zM1192.421 687.57L1190 697.587l.479 7.005 7.275-.504 8.246-13.015zM1300.043 703.59l3.957 7.51-10.882 10.52-.989 5.507-7.412.995-12.359 11.516-11.369-5.506-.989-4.007 20.76-9.008zM1049.383 438.247l-.383 3.19 9.295 15.964h2.711l19.371 33.117 7.749.798 3.874-11.571-6.202-3.988-1.163-6.38zM1107 460.385l4.174 4.897 16.005-5.627 3.165-12.403 7.132-.52 6.524-4.798-8.459-6.257-1.935-3.438-4.174 7.815 1.534 4.49-2.543 3.746-4.796-1.248-11.624 8.657.304 5.009z"/>
      <path d="M1128.902 441.25l-3.902 4.957 3.198 1.05 1.802-2.64zM1142 482.608l3.139 3.843-2.042 5.77v1.097h4.639l1.639-14.43 1.5.418 2.722 13.18 2.597.693 2.459-5.632-2.459-8.52-2.041-3.703 6.416-4.676-1.5-2.067-6.138 3.982h-1.639l-3-4.398.958-1.93 5.056-2.468 7.638 2.33 2.32-.138 5.736-5.355-2.319-2.331-5.32 4.12h-3.417l-5.18-2.47-3.681.139-4.097 6.59-2.597 11.405zM1176.536 456.27l-2.536 5.959 4 5.055h1.329l1.735-3.365.936-1.166-1.736-1.82-2.535-.904zM1185.072 477.297l-5.47 1.155-1.602 1.673 1.33 2.179 3.598-1.284 2.267-1.284 3.339 2.568 1.466-1.154-2.661-3.087zM1092.852 495.32l-3.852 2.667.826 2.24 12.256 2.809 6.191 1.12 2.619 2.809 7.018.567 3.305 2.808 3.026-.71 2.759-2.523-5.098-2.383-4.398-3.787-11.43-2.808zM1131.932 507.336l-2.932 1.848 1.738 2.158 4.262-1.848zM1137 505.505l.552 2.918 3.202.916 1.246-1.692-1.388-2.313zM1144.733 512.343l-3.733.646 3.339 3.359H1147zM1145.826 508.52l-.826 1.787 6.186 1.035 4.814-2.971-2.743-.885-4.394 1.336-1.652-1.486zM1165.007 509.339l-7.007 5.58.672 1.429 2.962-.524 3.496-3.118 6.87-.904-1.344-2.201zM1141.911 411.212l-1.112 2.243-.62 2.763-6.179 8.303.375 1.71 2.598-.397 8.027-9.493zM1153.135 408.208l-.135 6.974 2.464 2.547.907 4.955 2.465.543 1.164-3.09-1.936-1.475-.515-8.714zM1160.139 410.21l-.139 6.48 1.463 2.532 2.537-3.101-.669-5.633zM1162 404.85l2.534 3.248 1.197 3.114H1168l-.404-5.325-2.533-1.684zM1167.609 417.219l.55 3.978-4.855 3.716-4.014.399-4.29 4.377.145 1.996 4.014-1.197 2.769-1.721 2.362 5.698 4.159 2.78 1.667-.536 1.522-1.721-3.319-3.18 1.942-1.458 2.217 1.72 1.522-2.381-1.522-2.918-.275-6.496zM1145.934 377.168l-3.536 2.564-.398 8.098 5.511 10.93 1.837 1.485 2.358-1.626 4.057.673.782 3.643 3.016.266 1.439-2.017-1.837-2.565-2.234-2.157-4.716-.533-2.495-4.19 2.879-4.455.26-3.91-1.96-4.987zM1147 400.197l.993 3.787 1.752 1.22 1.255-1.753-2-2.973zM1101.7 372.16l-3.315.93-2.385 2.944 1.983 3.874 2.912.263 3.315-2.943.79-3.873zM1139.882 342.122l-4.633 3.775-.249 7.269 4.005 4.977.995-.937zM1161.302 298.065l-2.302 2.23.946 3.14 2.02.137 1.356 6.81 1.624 1.7 2.839-2.487 1.215-4.46-3.517-4.84zM1173.914 294.06l-3.778 3.627-.136 4.17.914 1.214 5.086-4.436-.395-4.436z"/>
      <path d="M1168.647 284.967L1162 292.77l1.171 1.885 3.256.405 6.116-4.844 4.305-.81 3.909 4.705 2.997-1.075 1.171-4.58 5.599-.14 5.476-6.728-2.861-11.17-1.307-5.92 2.86-2.414-6.511-10.08-1.689.14-3.514 4.034v3.365l1.566 1.885.518 8.879-4.032 5.11-2.343-1.48-1.826 4.174-.395 3.895 1.431 2.29-.913 1.745-2.997-2.555h-2.084l-1.825 1.075zM1179.518 223.969l-2.086 1.843 1.05 3.945 1.827 1.843-.136 6.048-2.346.914-1.827 4.082 5.345 7.359 3.519-1.188.654-1.843-3.777-3.413 2.345-3.031 2.482.396 1.95 2.103.137-4.342 5.345-4.341 3-.792-2.482-4.204-1.173-1.843-1.95 1.31-1.69 2.102-3.655-.791-3.777-2.5zM1199.436 220.965l-3.436 5.388.244 2.622 1.718-.831 4.038-5.66zM1204.178 212.224l-1.178 3.445.123 2.292 2-1.405 1.877-4.08v-1.524zM1212.57 180.913l-1.57 1.952.127 3.054 1.455-.126 2.418-4.272zM1209 189.054v6.179l2.33.699 1.67-2.244v-4.765zM1155.123 167.896l-.123 8.679 10.614 16.809 3.798 14.629 6.692 13.01 2.619.943 2.235-1.9 1.042-3.121-9.571-10.705.26-5.556 2.098-.942.521-3.25-18.745-27.232zM869.137 515.773l-3.024 6.948-5.182 8.844-9.072.632-3.89 4.422.653 13.486-5.622 6.317.653 10.739 4.756 5.26 5.622-.632 5.622-4.01-1.292-6.317 12.962-21.698-2.598-2.733 2.598-5.26 2.811.838.866-2.101-2.598-10.74-1.519-4.421zM848 512.569l.575 2.31 2.475.468.95-3.004zM852 517.992l1.174 2.36h1.884l.942-3.003zM430.62 391.186l-2.62.955.926 2.049 3.074-1.772-.611-.554zM434.479 393.188L433 395.465l1.782 1.729 2.218-1.4zM437.852 400.197L436 401.719l1.38 2.484 2.62-.683zM437.072 406.205L436 408.404l1.736 1.806 2.264-1.165zM437.922 411.212L436 412.547l1.516 2.67 2.484-1.335zM436.009 415.217L434 417.074l.769 1.147h2.462l.769-1.874zM438.13 421.225l-1.501 1.299-1.629.239v1.883l3.003 2.586 1.246-1.883.751-2.122-.255-1.764zM422 387.329l-3.328-1.15-2.672 1.719 1.336 1.602 4.551.684zM394.12 380.17l-2.304 2.23 2.636 1.017.386 3.115-5.838.483.593 2.998 1.698.117.98-1.382 6.818.209 1.228 2.229 1.574-1.747 4.596-1.173 4.044.808.469-2.307-7.287-4.497-4.721-1.668z"/>
      <path d="M411 387.346l-7.356-4.956-3.476-1.217-1.168 8.593 1.224 2.42 1.599-1.904 4.658-1.275 4.046.888zM394.182 380.17l4.818.52-.574 6.076-.476 3.196-5.617-.317-.994 1.54-1.723-.13-.616-3.325 5.924-.504-.364-3.455-2.717-1.152zM473 703.97l-3.507-.38-3.493 2.308 2.533 2.7zM476.918 701.588l-1.277 3.908-3.641 3.08.22 1.023 6.211-2.27 2.569-3.08zM610.785 160.439l-2.792-1.555-3.76 2.34-3.233 2.942.085 1.639 4.188.518-.257 2.942-1.481 1.47.356.953 4.188.267v4.763l6.024 1.036 3.575 1.989 4.016.169 6.894-3.377 5.327-6.92.085-4.68-3.233-2.69-2.706-2.254-1.225.869-1.837 2.339-2.094-.266-2.094-2.256-2.706.253-3.931 3.208-2.364 2.507-1.31-1.121-.086-2.773 1.311-.87zM724.014 72.083l-2.271-2.314-5.037 2.48h-9.247L706 77.717l5.188 4.642 2.271-.334 3.247-5.633 2.753 1.994-1.954 3.973-.977 5.8 2.27 3.639 4.872-8.281 6.33-7.794-2.436-2.147zM727.169 61.91L723 65.705l2.501 3.792h4.494l1.838 2.473 5.497 2.806 6.331-3.626L748 67.523l-1.498-2.972-4.339-2.473-3.165 2.806-2.162-2.64-1.668.167-2.162 4.626-3.166-3.14-.339-2.14zM736.552 78.78l-3.547 2.89L730 83.75l1.413 2.244 2.84.797 4.613-1.932L741 82.455l-1.954-2.891zM806.661 50.744l2.339.949-1.645 2.86v4.058l-3.508 2.146h-3.739L798 58.13l.231-2.861 1.645-2.146h3.277zM816 48.944v2.88l2.497 1.924 3.498-.235L825 50.869v-1.925h-2.744l-2.25.72-1.756-1.924zM829 48.937l1.586 3.576 3.159.234 2.255-.95-1.127-3.342-2.937-.715zM843.232 43.223l-2.739-.49L838 45.167l1.246 2.18.754 3.398 3.246-2.42.754-2.67zM857.818 69.769l-.713 3.404-5.429 4.862-11.571 2.675-9.446 16.042-1.659 4.623 9.446 2.438 1.412-5.828 2.838-8.995 7.321-3.894 6.142-4.862 4.483-1.947H863V71.73zM827.253 104.814l6.749.73 2.25 7.552 5.748 5.839-2.003 3.903h-3.498l-3.251-3.65-7.243-.24-3.005-3.901v-2.681l4.5-1.221zM928 21.71l-3.2-2.006h-3.686l-.743 2.253-3.928 2.253-2.957.996L913 28.21l6.886.505zM936.252 22.708l-1.757 3.53-3.498-.231-5.502 3.774L924 34.49h3.498l2.004-3.067 4.746 3.299 4.5-1.887L942 30.243l-1.248-4.005-1.757-2.824zM942 25.71l1.59 6.753 2.484 6.265 2.721-5.056 5.205-1.21v-3.611l-3.391-2.653zM1072.819 14.917l3.743 3.19 2.659-1.115.779-4.476-5.456-3.827-3.59 2.4-8.741.806v3.996l-9.213.155v6.538l10.772 8.134 2.812-2.076-.627-5.747 6.875-1.751-1.405-2.711-2.491-2.556zM1083 10.787l2.519 4.91 9.793-1.143 2.688-3.608-.633-3.115-2.688-1.144-2.519 1.97-7.26 1.637zM1082.469 28.953l-4.612-1.24-2.664 2.962-1.193 4.048 6.242-.62 4.758-2.492zM1207.781 1.915l-3.955-1.236-4.551 1.703-2.275 3.42 2.885 3.889 7.598-3.421L1209 4.567zM352 368.417v1.78l7.375.14 3.48-2.046.54 1.5 7.237 1.78 6.432 5.872-1.469 2.046.263 2.327 5.365 1.359 5.365-2.452L389 378.27l-3.48-1.78-17.952-10.651-6.294-.687zM379.084 356.63l-1.931-.49-.153 3.049 2.375 1.958 1.625-1.958zM382.773 363.149L380 364.323l2.614 2.832 1.386-1.416zM390.726 365.28l-2.726-.128.281 1.502 2 2.503 1.719-1.63zM389 363.149l-4.19-1.862-.81-4.428 1.62-.72 1.62 3.432 1.62 1.29zM384.703 353.136l-2.095-.49-.392-2.446-2.216-.728 1.432-1.342 2.609.853 1.959 1.104zM378.053 385.178L373 386.345v1.286l2.947 1.552h3.093l1.96-2.07zM1201.471 468.286l-5.765.66L1192 471.7l1.535 3.148 6.277 1.18v1.18l-3.968 3.275 1.922 6.815 1.922.127 1.659-6.69h3.069l1.286 6.549 14.974 12.59.388 9.838 5.115 5.635 2.309-.127.512-34.737-8.697-6.155-8.199 5.635-2.945 1.84-4.867-3.147-.125-9.963z"/>
      <path d="M316.335 468.286l-.818 3.616-1.517 1.526 1.042 1.867 2.678-1.052 1.28-2.223-.818-2.34zM328.884 47.378l.309 5.588L318 64.46l2.805 9.313 8.079-2.17 4.671-6.837 11.809-4.351L355 59.79l-7.462-8.076-3.731 2.794-2.805-.932-1.557-3.42-3.422-3.418zM343.45 30.508l-2.45 4.11 11.971 4.11 4.29-6.158 1.84 4.11h3.073L368 30.52l-7.058-1.76-2.768-2.047-3.681 3.519zM364.577 39.73L355 43.675v3.034l12.365 4.557-2.788 3.034 1.854 3.946 7.723-3.347h6.496l3.095 4.857 5.255-5.17-1.241-4.871-4.321 1.524-.613-6.081 2.16-3.646h-2.16l-3.402 2.122-1.547 1.21.934 4.259-2.468 1.823-3.708-.3-.934-5.468zM377.008 29.717L376 32.876l6.335 2.848L387 33.188l-.331-1.9zM381.372 24.71L377 26.384l.31 2.33 9.69-.671-.31-2.332zM402.13 29.046l-.605 2.15L400 33.345v3.073l5.784-.923 6.086 5.236H414v-5.236l-6.086-6.78zM418 35.34l2.565 2.753-2.246 3.672 1.609 3.972L427 42.066v-2.754l-4.174-4.59zM426 28.255l.315 5.01h8.566l2.217 1.88-.315 2.19-7.608.94 5.392 7.215 7.293 1.249L452 42.346l-14.587-21.641-4.434 2.82.315 3.762-5.077-1.88zM355.631 63.76l-11.648 3.066-6.752 5.84.609 6.446 12.271 3.683-2.767 6.144-8.895-5.525L336 88.018l5.824 3.985-.304 6.446 8.896 2.46 10.735-.618 1.84-3.381 7.969 8.905 5.52-1.841.927-6.143 3.984 2.762.609-6.143-4.911-3.065.304-19.337-4.289-3.381-4.593 6.143zM393.425 76.906l-4.177-1.811L387 77.81l4.496 6.648.319 6.337 9.646-5.432v-7.85L405 74.19l-3.539-2.42h-5.787zM412.366 74.775L406 79.705l1.516 6.084h3.935l1.817-3.191L416 85.206l2.732-.286 7.268-5.8zM411.609 63.76L410 66.539l7.072 2.229L419 66.264zM406.651 52.747l-6.698.929L396 57.395l7.302.306-2.127 5.578 1.523 2.484 2.127-.305L410 57.09zM419.711 49.743L416 51.008l.614 5.075 6.181 4.122.307 3.17-1.856 1.905.935 6.354 23.816 7.933 6.501 2.217L459 76.07l-7.729-6.355-7.116 1.905-9.892-.952-3.711-3.81-.935-10.477-6.181-3.17zM438.101 82.409l-6.784-.625-8.007 3.097-4.31 5.887 1.237 16.136 13.249.625 12.637 6.207 8.939 10.234 6.784-.306-1.849 9.609-6.159 10.234-6.784 3.097-4.935-.93-2.461-2.167-3.698 4.958 1.543 4.957 5.242.305 6.478-3.096 5.547 14.275 13.874 8.998 9.55-12.095-8.007-13.025 4.629-5.277 6.479 10.859L493 144.132l-2.155-4.652-8.007 2.486-5.547-15.205 5.241-8.68-10.482-11.163-5.853 4.027-5.547-12.095-11.705 1.555-3.086-14.58-9.551 6.513-.932 8.067h-5.241l.612-7.137z"/>
      <path d="M452.395 87.792L450 90.232l2.097 3.355L462 94.8l-6.304-6.71zM442.824 52.737v2.828L436 57.142l1.86 3.138 7.747 3.139 8.684.943 6.194 4.405 6.195-3.462-4.335-4.405h5.58l3.412-3.772 8.376-1.253v-1.886l-4.657-3.138.616-3.463 13.019 2.196 19.227-7.544-7.132-2.196 1.86-2.52h14.879L520 34.807l-30.079-10.697-7.132-2.52-7.747 5.659-8.683-7.235-4.657-.31-.937 5.982-5.887-5.348-6.824 2.196 1.244 3.462 10.237 2.196-.616 5.024 5.58 3.463 13.648-3.463.307 4.715-11.159 5.348-6.824-5.348-6.194.633 6.194 8.81-3.104 1.577-4.656-4.081-3.413 2.195 3.105 5.968h5.272l-1.245 5.658-4.335-.633-5.579-5.982zM414.978 138.858l-5.632 7.559-.346 8.327 4.926-3.027h5.979l4.22 4.163 3.875-3.41zM486.671 234.983L472 249.032l1.471 3.332 17.961 6.65 2.568-4.428-1.471-7.386-5.872.736-3.303-3.693 5.496-5.54z"/>
      <path d="M232.406 175.906L230 180.433l.835 3.207 1.571.958-.368 1.305-1.684.472.481 4.762 1.811 1.79 1.444-1.54-1.812-4.637 1.076-3.693L236 179.6l-1.925-3.208zM240.115 202.94l-2.115.842 3.885 4.568.94 5.408 3.885 4.203 3.29-.603v-5.52l-3.995-2.522zM316 402.138l8.464 6.07L333 397.817l-1.456-2.153-2.912-.098v-6.084l-2.184-1.3-6.608 1.93 2.526 5.705zM334.25 398.698l12.919-.503 3.831 4.688-2.391-.561-4.6.202-6.012 5.81-2.572 5.882-1.692-.921-.014-6.443-3.719-2.56z"/>
      <path d="M326 409.047l6 3.166-.089-5.02-3.077-1.99zM347.904 403.2l3 .615.096 6.259-3.493 10.149-9.411-.948-2.096-4.893 2.795-5.94 5.301-5.018zM346.699 420.955l1.821 3.828 1.48 2.11-1.991 6.347-3.799-2.87-6.21-6.108v-4.04zM353.036 427.689L351 433.785l6.721 1.67 4.169.789.711-4.718 4.475-2.166 3.974 1.965 1.562 2.393 1.896-.214L376 429.16l-4.964-1.965-3.764-1.965-3.765 2.459-4.476 2.166-4.573-1.765z"/>
      <path d="M397.612 414.508l-2.844-.292-18.801 15.659-1.988 5.508-2.568.293 1.146 12.173L366 464.094l7.123 6.093 9.125.586 6.267 9.287 9.11.292-.29 6.958h3.41l3.7-12.758-3.424-4.351.856-8.115L409 461.5l-.856-18.852-15.957-5.216-3.7-10.151z"/>
      <path d="M393.026 421.778l.611 3.616 4.511 1.438 1.027-6.66 4.762-4.955 4.761 5.612 10.952 3 9.273-1.953 6.316 7.832 4.761 3-5.219 8 1.749 6.059-2.985 3.713-3.095 2.61-6.705-3.392-1.541 1.564v4.83l4.9 2.346-3.609 3.922-3.609 3.923-4.761-.391-4.789-5.291-1.013-19.907-16.352-5.612-2.971-8.753z"/>
      <path d="M441.946 434.242l10.115 9.244-4.021 4.693-.322 2.784 5.282 5.499-.126 5.286-9.191 3.534-5.506-7.506 1.177-9.018-2.354-6.714z"/>
      <path d="M452.932 444.379l2.794 2.579 4.329-2.703 3.945.124-.507 1.545-1.657 3.476-.261 8.649-7.876 3.228.383-5.546-5.082-4.772.26-2.456z"/>
      <path d="M465.327 445.256L474 450.51l-4.536 8.75-1.646 2.017-4.818-2.692.133-9.428zM366.214 464.28l-6.454 4.119-.464 6.107L358 476.51l4.066 4.006-1.76 1.975.409 5.043 7.273 1.779L379 475.935l-.027-4.664-5.281-.351z"/>
      <path d="M358.704 483.29L356 486.03l.181 4.373 23.608 43.144 24.514 15.844 3.791-6.371.906-14.014-1.979-8.732-6.675-11.29-3.972 1.272-1.798 1.998-7.93-9.11 1.979-10.743 9.198-6.008-.725-5.645-9.365-.363-4.864-8.187-2.703-.908.181 4.918-12.069 14.376-9.017-2.18z"/>
      <path d="M405 515.31l11.608-4.97 3.837.36 2.553 10.465 17.687 5.773 2.92 8.845 7.292.9 3.103 7.572-2.186 6.853-11.862.899-4.373 11.005-9.309-.18-2.92-.54-5.374 5.122-2.651-.25-9.126-20.75 2.525-3.71.888-14.673-2.257-8.734z"/>
      <path d="M450.678 552.395l3.084 3.355-.365 7.1 8.888-.545 6.715 8.568-.547 7.646-4.346 6.555-8.887.364-.365-3.648 2.538-6.011-8.706-5.465h-7.248l-5.439-5.83 3.953-11.264zM462.781 597.453L460 600.499l1.153 16.382 8.737 2.6L481 608.065z"/>
      <path d="M470.282 578.996L473 581.53l-10.324 15.255-3.628 3.998 1.261 17.427 7.97 9.626-6.696 11.619-5.071 2.173h-5.799l1.625 9.069-9.063 3.092 2.171 7.62-5.435 17.247 6.71 5.447-3.628 8.888-6.164 9.626 3.264 6.714-7.971 1.268-6.527-7.982-1.093-24.867-10.142-42.238 3.068-14.766L411 601.87l4.343-24.504 3.992-4.722-.981-3.581 5.127-4.653 11.431.78 6.388 6.785 7.382.125 7.564 4.597-2.227 5.183.532 5.238 10.717-.502zM442.263 712.603L436 725.545l10.809 1.076.191-8.623zM448 718.61l.34 8.01 5.755-.544 4.905-3.467-8.293-1.818z"/>
      <path d="M439 710.843l-4.427 4.953-.538 5.818-8.563-4.911-9.102-13.27-2.675-4.73 3.751-4.911-.359-6.181-4.275-1.814-3.392-2.54.717-3.46 4.454-1.27.896-19.993-6.95-4.005L404 550.455l1.172-2.065 8.881 20.72 2.841.056.924 3.306-3.779 4.633-4.344 24.933 6.179 19.2-2.855 14.538 10.067 42.752 1.062 25.004 7.212 8.44z"/>
      <path d="M410.992 657.53L409 660.388l1.004 4.964 1.992.19 1.004-6.296zM483.207 607.466l8.712-16.717.321-14.047 16.253-10.46h9.103l7.151-12.086 1.296-23.198-2.927-6.203 17.229-15.69.655-17.315-23.404-11.432-28.27-8.818L476 470.193l3.583-7.511-.976-11.432-2.914-.96-4.307 8.54-2.258 2.823-5.799-2.56-19.501 6.858-6.496-8.164 1.045-8.526-6.133 6.23-6.775-3.643-.683.96.014 2.962 5.841 3.129-8.768 9.222-5.534-.056-5.604-5.69-6.342.196-.781 6.76 3.638 4.408-4.293 13.728-5.018.389-7.987 5.035L388 502.78l6.928 7.399 1.268-1.433 4.865-1.307 4.154 6.982 11.891-5.091 4.614.265 3.178 11.224 16.964 5.368 2.928 8.957 7.22.862 3.443 8.554-2.328 7.608 3.039 3.977-.446 5.925 8.141-.765 7.457 9.402-.585 6.606 4.419 3.728-10.594 16.008zM330.068 389.399l-.068 4.79h1.135l3.865-7.008h-2.622zM1181.942 99.376l2.446 8.468 4.891 1.406 4.89-7.757-2.792-5.292 1.042-4.582h7.336l-1.751 3.524.695 12.7-10.476 26.099 1.042 5.64-.348 9.525 19.55 28.563 3.835 1.059.347-23.271 3.835-3.524-4.196-9.163 3.487-3.886-7.683-10.222-4.197.349-1.389-16.921 10.824-2.827.694-4.944 5.586-1.406 3.14 2.827 3.835-15.514 6.628-11.281 5.238-2.827 4.543.348v-5.292l-7.336-1.406-10.129-8.467 4.891-5.64-4.196-9.526 3.487-3.523 4.196 5.64 10.477 3.885 11.518 1.059 1.403-4.93-5.933-5.99 6.628-9.162-15.02-5.292-3.835 7.757-4.89-6.351-27.581-9.525-26.19 4.58-3.835 2.118v2.117l5.585 2.827-.695 6.699-10.129-4.234-22.342 8.815-3.834-8.105h-15.368l-6.988 7.409-24.788-5.64-22.689 4.582-2.793 7.046 3.487 1.059-.347 5.292-21.995 2.465 1.404 7.047-20.258-3.524 4.89-9.163-20.605-1.06 1.751 9.527-6.628 3.175-5.585-5.292-22.69 3.886-8.725 8.105-.348 4.93-5.585.348-.695-5.64 17.813-15.514V42.975l-11.519-3.176-15.02 4.93-6.28-6.35h-2.793l-3.487 7.047 2.793 3.175-19.911 10.932-17.104 13.049-10.476 14.456v5.988l11.171 4.582-5.586 4.233-11.865-4.233-4.891 4.233-7.336-8.467-1.404 3.175 8.031 25.388 2.098.71 5.586-2.827 2.793 2.117v4.582l-5.239-2.117-3.14 2.465 2.098 4.582-1.75 11.99-10.824 1.059-.695-3.886 6.28-3.885 1.404-10.584-6.989-9.164-2.446-15.862-11.171-1.77-1.042 5.642 2.098 2.827-4.543 3.885 1.751 10.584 6.627 2.827 1.404 7.757-6.642-4.233-17.104-3.176-2.098 5.64-13.616 4.93-2.098-3.523-17.813 9.874-.347 6.698-6.989 1.059 2.098-4.93v-4.93l-6.989-2.465-4.543 1.769 3.834 7.409 2.793 4.929v3.886l-5.238-1.06-1.042-1.057-5.238 5.64 2.793 4.93-11.866-.348 3.835 4.944-1.042 2.117h-6.281l-4.543-3.176-1.042-8.815-7.336-2.827v-3.523l15.367 3.175 8.378.71 3.487-5.292-3.14-5.64-22.342-8.815-7.711 1.92-2.64 2.27.82 5.224 3.279.57-.764 8.217 10.115 23.814-7.309 11.615-.5 2.618 3.71 2.618-3.349 2.215-2.223.04.417 10.237 3.071 4.359.041 4.234 3.933.362 6.016 2.298 6.363 8.773.07 2.312-2.07 3.55 4.751-.263 4.627 1.337 6.253 8.87 15.395 1.407-.667 10.556-5.308 4.554 1.098 1.783-5.238 5.64-1.39 5.292 3.14 4.582 10.129 3.523 4.196-2.465 26.886 10.222 1.042-2.827-5.586-5.292v-6.698l-3.487-1.06.695-5.64 5.585-6.698-10.018-7.52.695-10.46 10.713-7.06 12.574.71 2.098 3.887 12.922.71 9.434-5.292-4.891-5.292 1.042-9.874 24.44-11.991 18.799 8.495 6.281-5.64 18.507 17.63 13.964-1.406 4.891 4.93 13.269 1.407 8.725-11.991 11.171 4.944 5.933 1.059 5.933-5.292-5.238-3.524 4.543-7.046 12.922 4.233 2.793 5.64 5.585.348 3.488-2.464 9.434-.35 1.042 2.466 10.824.71 7.336-7.756 15.02 1.768 4.543-1.768 1.39-8.468-4.544-10.222 4.544-3.885h14.311l13.616 16.224 17.452 9.874h5.238l.695-4.234 6.28-3.885.695 22.923-5.586.348v5.64l3.14 3.885-.583 5.042 2.32.96 1.403-3.523 2.098.71 1.39 1.407 6.28-1.406 6.28-18.341.695-22.923-8.031-18.341-10.129-12.34-4.891.71v3.887l-11.866-4.582 4.544-9.874 3.835-26.098 16.062-4.93 7.683-4.93h8.378l-2.098 2.827 2.098 3.524 7.337-7.757 4.196.348-.695-4.582-6.642-1.406 4.544-16.573z"/>
      <path d="M982 233.83l8.067-10.644 9.689 4.454 6.584 1.75 8.067-7.362-5.475-4.013 3.604-5.061 10.756 3.779 3.728 6.08 6.737.18 3.52-2.606 7.249-.29 1.581 2.675 12.045.607 7.623-7.736 10.548 1.103-.61 10.535 4.616 1.048 5.669-2.565 6.002 2.95-.139 1.49-4.352.125-4.532 9.459-3.521.345-13.695 17.8-13.985 6.138-8.747.675-7.263-4.66-9.286 4.936-9.149-2.827-2.592-6.605-17.326-1.213-8.871-14.961-4.31-.276zM1127.607 266.855l2.595 1.057.791 8.837 5.149.289 4.853-5.531-1.679-1.454.198-5.93 4.458-5.241-2.272-3.98 1.482-1.646.818-4.117-2.582-1.14-2.201 1.085-2.722 8.042-4.402-.371L1127 262.6zM1140.323 273.032l8.272 6.905 1.405 6.685-.281 3.589-4.042 4.658-3.48.192-3.948-8.727-1.499-4.164 1.592-1.26-.375-1.74-1.967-.904zM846.562 259.51l5.673-2.443 6.337-.223.443 9.769h-3.708l-2.837 4.66 3.709 6.21 5.465 3.113.498 3.559 2.007-.67 1.854-2.22 3.058.67 1.536 3.113h3.93v-3.991l-2.408-7.104-1.093-5.763 6.988-3.112 9.396 1.549 5.894 5.987 13.326-1.326 7.43 10.648 8.732.447 2.407-3.992 3.058-.67.443-4.437 4.58-.224 2.408 2.889 2.408-5.763 20.742 2.888 3.487-4.661-5.895-7.326 7.86-17.305 6.337.446L975 233.58l-8.731-.894-5.023-4.884-13.838 1.619-17.822-17.375-6.282 5.624-19.054-8.722-23.372 11.54-.65 8.207 5.466 6.434-10.655 6.07-13.824-.307-2.892-4.284-10.834-.6-10.268 6.656-.221 9.099z"/>
      <path d="M870.62 286.145l-.861 3.69H864v4.995l6.19 4.125-1.916 5.655v2.609l2.568.435 3.414-4.56 7.688-1.74 16.432 6.3.208 4.56 9.174.87L918 302.21l-1.277-3.48-6.828-1.515-19.207-12.613-.861-4.561h-7.258l-3.206 6.09h-3.206z"/>
      <path d="M920.084 301.847l4.286.223v-7.352l-4.064-2.371 6.848-8.65h2.783l2.784 3.25 7.279-2.803-10.063-3.46-.389-2.092-2.394.586-2.352 4.1-10.146-.333-7.446-10.561-13.083 1.298-6.235-6.194-8.629-1.465-6.263 2.553 3.633 12.109.041 4.073 2.645.056 3.242-6.194 8.629.112 1.281 4.757 18.497 12.304 7.153 1.646z"/>
      <path d="M921 292.207l5.649-7.16h2.131l.742 1.6-2.611 1.938v1.6l1.718 1.264 8.261.505 2.694-1.18 1.224.254.824 2.695 4.908.505 2.46 5.306-.742 1.6-.976.085-.976-2.022-2.131-.168-3.684.505-.247 3.537-3.684-.252.165-4.464-2.694-2.695-4.096 3.453.082 2.274-3.601 1.263h-2.131l.165-7.832z"/>
      <path d="M930.125 273.992l-.433 3.518.349 2.17 12.166 4.06-10.683 4.284-1.217-1.001-2.307 1.474.112.807 1.23.556 7.495.194 3.804-1.14 4.88-6.12 6.11 1.058L959 273.7l-19.716-2.67-2.726 6.578-3.44-3.672zM899 312.766l2.251 17.592 5.607 1.229.523 3.162-4.02 3.347 7.489 6.029 14.554-5.225 1.161-6.184 9.16-5.704 3.511-13.216 2.62-2.81-2.719-4.715 8.863-5.465-1.133-1.581-4.091.254-.368 3.756-5.494-.057-.099-5.012-1.769-2.104-2.973 2.697.084 2.47-4.488 1.695-8.282-.522-10.76 11.239z"/>
      <path d="M911.881 343.905l3.595 5.353-.346 2.76-4.784 1.9-.346 4.494h5.476l1.88-1.554h10.426l9.402 8.294 1.203-3.98h7.011l.166-5.007-7.177-6.907 1.535-3.8 7.356-.513 9.915-20.734-5.476-4.314-2.047-7.253 13.33-1.207-7.868-11.234-4.189-1.137-1.715 2.08-1.286.098-7.868 5.006 2.572 4.327-2.904 3.107-3.595 13.3-8.891 5.7-1.203 6.228z"/>
      <path d="M977.55 432.239l6.32-3.108 3.754-13.652-.166-16.761 21.5-23.337v-5.536l4.43-1.734-.166-6.396-4.775-9.338 2.733-5.01 5.975 5.537 7.673.347v3.108l-2.388 2.595.511 1.387 4.098.167.856 4.66h1.201l3.077-5.535 1.532-14.512 5.119-3.635.166-5.01-2.042-3.981-3.243-.167-12.696 8.436.8 5.425-8.914-.028-3.147-3.871-1.711.222.58 5.384-19.278-1.388-11.951-5.355-.635-6.591-7.962-4.967-.097-10.225-5.464-6.286-12.558 1.207 1.366 5.495 6.155 5.008-10.64 21.895-7.12.54-1.173 2.637 7.01 6.52-.345 6.59-7.162-.11-.773 3.275 5.948-.264.165 2.595-4.264 2.247 2.733 5.189 5.285 1.735 3.243-2.415 1.531-4.315 1.877-.86 2.222 2.248-.676 5.536-1.532 2.594.345 4.496z"/>
      <path d="M978 334.515l.642 6.058 11.28 5.193 18.078 1.363-.684-4.441-12.075-3.377-10.247-6.201zM1012 342.143l2.283 2.928 7.717.055-.781-4.005zM1011.813 349.13l-1.813 3.316 4.705 9.036.138 7.05.858 1.889 5.522.098 3.127-3.036 2.27 1.385.456 4.294 1.813-1.147.111-5.483-1.522-.182-.955-4.658-3.847-.14-.955-2.587 2.353-3.176.041-1.566h-6.836z"/>
      <path d="M1058.882 419.222l-3.806-6.152 2.762-3.907-2.611-4.835-2.459-.471-.467-8.12-3.681-7.191-1.072 1.719-2.459 4.212-3.077.47-1.538-2.036-.77-5.473-2.308-4.378-9.396-8.937 2.308-1.538.426-6.47 3.434-5.82 1.484-14.478 4.973-3.423.164-5.278 2.982.997 4.698 6.859-3.49 7.537 2.349 5.916 5.811 2.3 1.058 6.443 7.803 1.219-2.157 3.755-9.836 3.907-1.071 6.4 7.226 9.367.302 5.002-1.69 1.718.151 1.566 5.385 7.967.151 8.27z"/>
      <path d="M1059.73 373.162l4.523 5.814v7.068l1.563.78 7.189-3.456 1.41.474 8.585 9.898-.307 6.762-2.806-.474-2.499-1.576-1.87.154-3.281 5.493.628 2.983 2.653 1.408-.154 3.305-1.87.948-6.408-4.406v-3.932l-2.652-.153-1.089 1.729-.558 17.594 4.146 7.557 7.342 7.068-.307 2.049-3.908-.153-3.588-5.34h-3.755l-4.69-3.778-1.41-3.931 2.024-3.304.698-2.984 2.205-3.904-.097-8.978-5.389-7.78-.223-.948 1.745-1.756-.405-6.176-7.175-9.076.838-5.228z"/>
      <path d="M1064 436.314l2.709 6.258.606 8.132 3.625 5.787 8.745 5.468 3.315.319-.606-5.634-2.871-7.19-4.204-9.2-.35 1.61-5.067-.235-3.638-5.385zM1075.018 414.205l5.945 6.018 11.063-7.768.974-12.258-5.713 3.733-2.966-1.57-4.026-.51-2.254-1.501-1.09.055-2.951 4.586.48 2.12 2.994 1.585-.363 4.31z"/>
      <path d="M1067.262 363.149l-3.421 1.706-2.841 8.126 4.75 5.936-.792 6.559.792.319 7.902-3.758 10.602 11.62-.255 7.323 2.304 1.22 5.697-4.535-.466-3.591-16.441-15.324.156-2.343 2.05-1.401-1.428-3.911-6.799-1.095z"/>
      <path d="M1080.501 420.18l1.679 2.602.31 2.976 4.417.473 5.361-7.052 5.051-1.405 2.681-7.205-1.256-11.601-5.206-7.052-5.489-4.326-6.984-11.824 5.009-8.262-7.167-8.11-5.743-.25-5.164 2.74 1.538 6.552 6.885 1.196 1.849 5.049-2.427 1.558.155 1.252 16.155 15.579.635 4.577-.973 14.466zM817 281.188l4.503 6.156 5.618 2.71 3.457-.014 5.935-1.687 1.487-2.436-17.557-6.877z"/>
      <path d="M836.621 288.052l6.379 8.717-1.874 2.297-4.518-.821L831 292.98l.306-3.453zM839.459 286.049L838 288.413l6.805 8.494 2.37-.73 3.901 3.89 1.691-6.816 4.233.646-.173-1.952-6.965-5.8-1.329 3.409z"/>
      <path d="M837.683 299.819L836 301.596l.166 2.81 2.097 2.98 7.437 8.254-1.131 3.3h-1.297l-.649 3.303 4.208 5.455 3.878.336 7.768 10.897 4.36.336 3.394 2.476.166 4.95 13.425 7.933h5.009l3.077-2.644 3.877-.168 2.263 5.288 14.502 2.042.428-5.4 4.801-1.762.221-1.93-3.822-5.288-8.513-6.938 4.47-4.127-.317-1.818-5.602-.882-2.373-19.164-.276-4.406-15.192-5.89-6.733 1.54-3.767 4.686-3.339-.224-.966.825-7.437-.49-9.383-6.938-3.491-3.874-1.6.39-2.884 3.344z"/>
      <path d="M822.132 288.384l-3.114 3.313-11.448-.337-6.868-4.141-6.702-.168-7.692 5.474-7.204.337-.656 4.14h-8.181l-3.267 2.99v1.657l1.968 1.656v1.825l-.823 2.162.823 1.825 2.625-1.32 2.625 2.822-.656 1.993-.978 1.333 1.466 1.657 7.204 1.488 5.068-2.162v-3.144l2.457.49 5.892 3.482 6.38-.997 2.778-2.653 1.801.66v2.99h2.457l2.122-4.141 18.652-1.993 8.139-.997-2.15-2.835-.042-3.832 1.634-1.965-5.948-4.801.321-4.141h-3.267zM840 399.282l2.001 5.879v5.742l4.807 4.314 33.872-13.641.32-3.751-5.432-9.643-13.63 4.3-7.822 7.61-9.073-5.303zM877 387.555l10.149-5.933 1.799-8.706-2.225-1.295.92-9.332 1.937-1.142 2.074 3.3L904 370.995v3.635l-14.956 22.328-6.88.237z"/>
      <path d="M871 365.105l1.194 4.844 13.536 1.21.948-9.938 2.608-1.448.714-3.633-4.27 1.21-4.75 7.28z"/>
      <path d="M868.601 357.436l-.601 5.973 1.78 1.743 1.619-.194.601-7.522-1.399-1.296zM856 340.92l-2.953-1.802-2.047 2.32.223 4.638 4.764 2.054z"/>
      <path d="M857.073 349.576l9.726 13.633 3.136 2.512 1.401 6.11 14.971 1.188 1.693.893-1.679 7.535-9.837 5.832-14.389 4.382-7.672 7.535-9.116-5.344-5.522 4.856-7.687-12.63-5.273-2.427-1.914-2.916v-6.321l-19.19-23.331-.721-4.13h5.522l6.716-5.833.236-2.916-1.915-1.94 3.843-3.154 8.159.489 13.916 11.665 8.214-.377.527 2.038zM805.492 315.596L805 319.02l3.96 1.592-.168 9.493 3.96-.08 3.96-2.873 1.489-.243 8.987-6.864L829 310.08l-17.961 1.754-1.896 3.99z"/>
      <path d="M830.227 310.154l-2.184 10.486-9.043 7.318.574 3.455 8.833.584 14.069 11.126 7.867-.217.21-2.571 2.883-3.006 4.032 2.217.532-.49-7.797-10.078-3.696-.218-4.913-6.134.98-4.516 1.497-.19.518-2-6.691-6.841zM808.441 332.27l-3.294 12.022-.147 1.835h5.181l5.797-5.352.148-2.031-2.37-2.536 4.244-3.684-.616-3.42-1.165.28-3.534 2.649zM805.013 320.093l.08 2.654-1.093 4.029 3.76.327.24-5.717zM803.155 328.104l-2.155 6.83 2.795 8.189L807 331.159v-2.566zM800.238 317.09l1.762 1.188-5.458 4.819-2.608-.08-1.934-1.268.258-2.363 3.954-.24zM762.189 139.395l2.811-2.058-.25-2.307-1.782-1.028.251-2.822h1.531v-1.543l-6.638-1.793-9.95 1.029-1.015 4.364-2.296-.764-1.531-2.572-4.857.25-.514 4.879-2.297 1.029-1.28-2.572-10.214 8.215 2.046 2.307-3.827 1.793-8.683 17.208-3.061 2.057.25 1.543 3.062 1.543-.766 3.336-5.107-.264-1.53-1.793-3.312 3.85-2.046 1.543-.515 3.6-1.781 1.028-4.592 1.029-2.296 7.2 1.531 11.814 1.781 5.394 2.045 2.057 4.592-.251 6.638-6.421 2.547-4.365.765 6.422 4.342-7.7.25-21.586 3.535-2.224 1.057-11.912 10.715-15.415 5.107-1.793 2.296-2.822 7.653 1.793 3.827 2.308 1.28-6.422 6.387-3.85zM665.776 204.74l-2.494 3.892.995 1.559h5.751v2.6l-1.499 2.079.995 5.452 3.244 6.49 2.494 5.972 3.993 1.56 1.745 3.119-.245 2.852-2.495 1.56-.245 1.292 1.745 1.04-1.5 2.08-3.502 1.559-6.747-.773-10.508 4.932-3.503-1.812 10.004-5.972-1.254-.773-5.247-.52 3.244-4.931.504-4.16 4.252-.52-.749-8.05-5.002-.253-1.5-1.812.246-5.971-2.999.253 2.999-10.384 5.506-4.16z"/>
      <path d="M655.062 220.965l-4.8.539-.262 4.313 3.2 2.157 3.462-.802 1.338-2.418z"/>
      <path d="M657 227.753l-1.292 8.194-11.46 4.043h-3.649L638 238.228v-1.516l5.737-3.537-1.562-3.032.255-4.29 4.956.247 2.272-5.135-.298 4.56 3.849 2.938zM737.521 142.863l2.743 2.494h5.138l2.828 5.346.77 9.16-6.93 4.837v4.836l-4.885 6.626-2.828.248-3.85 6.365.252 6.117 6.678 4.836-.518 2.797-2.562 3.816-3.85 3.306.252 10.953-5.908 2.039-2.058 4.326h-2.827l-1.54-7.633-6.426-9.7 5.278-8.692.364-21.478 3.639-1.97.882-12.29 10.374-14.616z"/>
      <path d="M749.59 159.598l2.832 1.262 1.751 3.329-1.751 2.303-8.785 9.738-1.505 5.132 2.012 7.435 6.773 5.133 9.031-4.356 7.279-1.026L774 177.52l-5.022-12.055-4.775-11.541.753-7.435-3.011-.513-.78-5.424-4.05-6.7-4.488 3.149-1.765 7.31-4.762-2.9-6.622-1.636-1.478 1.748 2.545 2.33 4.639-.083 3.735 6.117zM765.033 207.53L756 205.946l.198 5.472 8.373 5.543 3.429-1.086-.198-4.172zM749.267 202.016l-2.067-.076-1.2 1.388.867 1.464 2.066.152 1.067-1.77zM749.647 208.152l-2.017-.204-3.63 4.404v2.06l1.21.477 2.353.068 3.899-3.232.538-1.104z"/>
      <path d="M755.165 212.022l-2.922-.07-4.01 3.908h-3.398l.204 4.89L743 224.59l7.34.07 2.107-.277 2.106 2.59 4.826-.207 4.621-6-.272-3.561z"/>
      <path d="M755 228.85l2.047 3.496-.819 2.788.137 2.209.75 2.647 4.231-2.492 5.254.142 3.685 1.57h9.348l2.729-6.78L784 229.87v-1.713l-5.868-8.564-5.186-2.137-4.231-.495-3.684 1.217.136 3.85-5.118 6.709z"/>
      <path d="M667.766 282.659h-17.48l-3.526-1.616-1.702.125-2.058 4.348.727 4.473 6.682.627.851 2.856-2.909 16.652.124 2.982 4.733 2.606 5.461.376 10.922-2.731 5.338-6.828.123-6.953 9.468-8.695.48-3.846-8.617-.126z"/>
      <path d="M644.464 291.056l-.899 12.274L641 305.6l.261 1.39 1.797 2.91-1.159 3.547 1.927.639 4.493-.511-.261-3.548L651 293.582l-.638-2.271zM686.196 299.066l-2.196.824.483 2.18h3.177l1.34-1.631zM709.264 294.06L706 296.013l.431 7.535 2.611.525 1.958-2.216v-7.141zM710.328 285.048l-3.047 2.495-.281 2.265 2.484 1.248.969-.115.547-3.296zM685.015 244.996l-3.034.756-6.069 6.734-1.826.126-2.43-1.75-1.579.378-1.208 3.864-8.869.25.247 2.003 6.068 4.116 7.044 5.74-.124 6.86-3.762 6.733 8.142 3.99 8.265.252 2.553-2.996 5.217.126 1.456 1.372 5.217-.378 2.677-3.5-3.405-4.116-.247-2.617.728-2.87-1.703-2.492-2.91.868-.371-2.24 6.439-7.238V254.6l-4.256-2.492-2.183-.378zM697.611 230.978l-5.994 3.17 1.271 1.237.132 3.17-1.27-.27-1.403-2.345-3.347 5.7 5.147 1.152 1.918 2.176 1.019.028.675-4.92 3.241-1.464z"/>
      <path d="M687.86 242.993l-.86 2.182 9.245 6.189 2.661.64.094-2.93-2.325-2.645h-1.424l-1.949-2.25z"/>
      <path d="M699.932 230.92l4.938-.8v-3.473l4.136-.676 2.268 2.275 2.393.262 3.734-1.613 3.333.938 2.933 2.537.401 9.5 2.932 3.888-3.859.537-6.404 4.013.54 1.337 5.726 5.35-.401 2.675-5.325 2.675-4.938.137-1.203 2.537h-2.532l-1.203-2.674-4.398-1.076-.139-4.412-3.734-2.537.401-3.213-2.531-3.474.664-4.55 3.458-1.613zM707.936 206.947l-5.729 6.613-.207 4.307 2.609 7.103 4.086-.807-.511-5.806 2.816-3.285-.055-2.58-1.988-5.372zM713.696 219.017l-1.166-.055-1.53 1.52.188 2.377 3.624.108.188-2.688zM737.881 205.945l-2.881 2.03 1.447 2.977L739 208.74z"/>
      <path d="M702.24 260.016l-6.24 6.373.129.645 2.562-.77 2.304 3.078 3.892-1.32 2.691 2.007 1.102-.605 3.32-5-.844-.77-3.278-.081-1.588-3.118zM723.631 253.684H729.716l3.255 2.326 6.029-5.023-5.851-4.185-5.796-2.807-3.969.715-5.384 3.469zM734 257.595l.933.895.122 1.526 10.318-.25L753 256.2l-.122-3.624-1.46.704-2.096-1.217-1.285-.06-3.381 1.468-4.598-1.203z"/>
      <path d="M735.636 261.026L734 263.572l.127 3.889 2.609 1.328 8.024.238 11.184-9.344.056-2.07-1.213-.601-8.081 3.636zM733.925 264.02l-3.812 1.996L723 267.38l1.426 3.596 4.982.053 4.592-3.36z"/>
      <path d="M734.526 268.026l-4.928 4.139H724.6l-.6 3.585 2.289.612 1.145-1.736 1.801 1.608 1.438 5.12 9.87 4.695.977-1.138-10.009-10.526 1.019-1.921 9.507-.37.963-3.087-6.198.185z"/>
      <path d="M732.484 274.22l-.484.878 8.781 9.95 3.219-5.205-.118-2.056-2.813-3.753zM701.874 271.069l-.874 2.188.24 2.383 3.369 3.887 5.302-.181 11.702 13.432 7.303 2.09 4.314 4.027 1.03 9.183 2.312-1.338 2.002-5.002-.494-3.595 3.427-.307.493-2.034-9.658-4.57-9.164-8.904-3.652-5.323-.888-5.058 4.667-1.101-1.199-3.33-2.862-2.383-2.467-.111-3.44.934-3.243 4.486-1.96 1.282-3.031-1.84zM729.916 307.115l-2.02-1.04-6.896 1.04.237 1.785 6.2 2.985.933.973 1.63.226zM730.996 318.09l-2.996.507.108 2.755 2.69.744 1.202-.834zM761.683 238.212l-3.988 2.247.99 4.244-3.685 7.786.028 3.432 1.732 1.102 11.111.552 3.107-2.577 3.328 1.116 4.771 6.38-3.492 6.284 4.152 1.213 5.432-6.27 3.107.565 2.888 2.012-2.544 3.362 3.438 5.375h3.658l1.883-3.583 3.878-.786.11-2.907-7.205-1.117.22-3.128h6.985l7.535-6.05 3.328-2.907.55-9.178-14.851-1.337-6.091-8.613-4.208-1.447-5.101.22-2.297 5.692-10.45.138-3.396-1.571z"/>
      <path d="M769 258.107l4.24 6.292-.356 3.56 1.519.067 3.597-5.87-4.322-5.17-2.449-.976z"/>
      <path d="M757.443 258.013l-.363 2.094-8.08 6.819 6.754 10.045 4.327 3.07h7.787l2.568-2.178 3.447-.453 2.568 1.57 4.549-5.25-.879-2.63-4.619-1.203-3.154-.155.153-4.5-4.187-6.677zM747 284.676l-.064-1.218-1.885-2.415-3.051 3.936.6 1.654 2.484.418zM748.002 267.025l-2.75 2.118h-1.341l-.911 2.912 3.245 3.863.215 3.066-.459.663 2.195 3.159.076 1.676 1.579 1.567L755 284.44l-.43-7.505z"/>
      <path d="M756 278.245l.221 6.847 2.316 4.81 8.7.152 3.916-2.763 3.847-1.526-.938-4.372.869-2.337-1.958-1.017-2.689.22-2.109 2.117-8.852.069zM746 288.447v6.245l1.692 3.373 1.218-.15 2.09-4.022-1.218-1.802-.474-4.457-1.616-1.585zM755.766 287.05L751 288.614l.226 4.025 1.117 1.422 5.657-2.618z"/>
      <path d="M749.149 299.652l-.149 1.897 6.253 3.324 2.984 1.213-1.566 1.74-3.485.37-.499 1.67 1.202 2.867 3.903 2.197 1.701.157.216-4.921 2.553-3.253-6.969-8.702.919-2.953 1.634-.071 2.485 2.11 1.566-.826.5-2.953 7.319.07.284-4.535-3.052 2.268-8.954-.228-5.82 3.18zM772.212 288.432l-.212 4.626 4.115-1.238 1.885-1.238-.558-2.007-1.951-1.524zM762.92 318.09l2.42.076 1.01 1.52h3.518l2.345-.872.787.963-1.559 2.078-6.873.24-1.247-1.67-1.321-.798z"/>
    </g>
    <g fill="#181929" fill-rule="evenodd">
      <path d="M175.494 59.709l-11.66 2.77 2.404 13.154 12.689 3.466.681 2.77-18.86 5.888-10.632 17.65 3.766 18.693 6.171 4.148 4.809-4.496 1.376 2.77-5.837 6.918-22.641 10.384-14.413 3.466-.347 5.192 33.273-9.688 13.718-3.814 12.689-15.576 14.065-9.34-7.199 12.11 7.894 1.044 13.384-5.888 2.404 9.688 9.257 2.074 9.604 9.34.681 6.918-1.376 1.726 1.709 6.57h2.405l.347-11.08h2.738l.681 27.338 6.866-5.888-4.809-28.382h-7.199l-7.895-10.036L265 63.828l-38.415-30.106-42.877 8.31-1.709 13.154 9.256 5.539-3.433 9.006z"/>
      <path d="M265.972 63.76l2.762 4.194 1.388 5.599 6.911 1.742 4.844-5.238 4.149 2.103 11.756 1.045 8.299-3.496 1.388 11.534h4.843v-4.89l4.844.349 12.102 14.333 7.953 4.89-4.15 6.644 1.735 1.74 15.53 3.149.347 6.993 4.15.697 1.04-10.49 6.565-1.741 4.844 7.34 10.367 4.89 5.191 1.045 3.455-4.192.347-6.645 6.218-3.845 2.068 5.6-5.538 9.793.694 4.889 3.109-4.89 6.218-5.6.347-7.34-3.456-5.6 1.041-4.541 8.299-4.193 3.803 2.8.694 24.475 5.87-5.238 3.456 2.104-4.843 8.385 6.217 1.393 8.993-13.985 7.606 8.037-3.109 14.334-7.605 4.193-7.259-3.496-13.129 2.799 1.388 4.542-3.456 5.599-10.714 2.452-12.102 9.444-10.715 14.334-1.387 4.54 7.258 2.8 2.762 6.994 10.02 10.14 15.905 6.993-3.456 16.075-.347 4.54 4.15 2.8 5.538-7.34.694-13.985 8.646-.348 4.15-8.038.694-12.23 11.061-21.675 13.823 4.889 7.258 10.14-3.108 10.142 5.537 3.148 13.476-9.096 3.803 24.823 12.449 15.03.347 7.689-13.823 3.497-6.565 6.992-13.823-3.148-6.911-.348-12.102 9.444 7.258-1.741 8.993-1.741 1.735 2.103-2.415 7.69.347 6.992 4.15 2.8 4.15-1.045 2.082-3.148h2.761l-4.496 8.386-8.647.348-3.802 5.6h-4.844l-1.388-4.193 6.912-6.993-8.3 2.8-.374-11.882-2.388-1.393-7.258 3.148-.694 5.948h-16.599l-14.17 9.793-19.013 6.296-2.068-2.8 9.576-14.347-5.441-5.252-3.455-6.658-7.037-5.391-7.55-.627-13.531-9.514-98.136-16.186-1.624-6.673-8.993-8.385v-6.993l1.388-6.296-.694-3.497-3.456-3.496-.694-5.6 8.994-6.296-5.538-30.06-7.605-.35L228 128.52z"/>
      <path d="M252.025 216.96l-1.391 5.575-4.851-3.134h-2.419l-1.39 5.922L225 263.269l4.504 33.064 5.547 2.788 1.042 9.057h11.427l11.08 8.349 21.811 2.094 2.419 11.137 3.462 2.44 4.851-4.867 3.809 1.734 3.462 16.005 5.88 3.828 4.852-9.057 14.888-10.79 9.69 4.52 8.313.695.347-5.215 17.308.347 3.461 3.828.695 8.696-2.071 4.868 2.419 8.349h5.199l5.199-8.003-2.071-3.828-2.071-8.35 3.114-9.402 14.193-12.177 10.732-3.135-1.39-10.097 14.888-16.02 14.889-2.44-2.419-8.335 14.541-8.35v-11.136l-1.39-.694-5.199 1.734-.695 6.824-17.28.208-13.54 8.973-21.255 6.935-3.392-4.147 9.647-14.563-4.768-4.535-3.239-6.158-6.715-5.381-7.298-.611-13.79-9.39z"/>
      <path d="M977.185 232.736l-4.806 12.076-6.626-.347-6.987 15.283 5.932 7.55-12.224 16.866-6.279-1.055-4.195 5.275 1.042 3.165 4.889.347 2.445 5.62 4.89 1.056 15.016 19.336v9.84l7.334 4.568 8.029-1.402 10.126 5.969 12.224 3.512 5.932-.708 6.639-.708 13.961-9.134 4.542.708 1.736 4.123 3.848 1.152 5.237 7.73-3.487 7.733 2.098 5.274 5.931 2.11 1.042 6.33 6.987.708 1.042-3.165 10.126-5.275 6.279.347 7.334 8.079 4.89-2.11 3.139.347 1.403 3.873 2.445.347 3.487-4.914 13.96-5.275 12.571-15.116 4.195-14.408-.347-9.494-5.237-1.055 3.139-3.512-.694-5.621-13.266-13.354v-6.676l3.834-4.914 3.834-1.763.347-3.873h-9.779l-1.75 5.275-4.543-1.055-5.584-5.968 3.487-9.134 4.889-5.275 4.543.347-.695 8.079 2.445 2.11 5.931-5.97 2.098-.346-.695-4.567 5.584-6.676 4.195.347 2.445-7.732 2.862-1.513.291-4.816-2.778-2.915-.236-7.607 5.348-.347-.347-19.613-3.751 2.249-1.403 5.024-6.265-.014-18.155-10.202-13.113-15.796-13.307-.14-3.389 2.944 4.306 9.855-1.501 9.245-5.361 2.22-3.015-.235-.222 9.147 3.139.708 5.584-2.457 7.335 3.512v3.512l-5.237.347-4.195 9.133-3.834.347-13.613 17.92-14.307 6.33-9.78.707-6.625-4.566-9.432 4.927-10.127-3.164-2.445-6.677-17.099-1.055-9.071-14.755h-3.834l-3.083-6.843z"/>
      <path d="M756.519 239.89l1.199 2.155.282 2.293-.987 2.224-2.257 4.255-1.903.843-2.468-1.05-1.481.069-3.596 1.326-4.09-1.188-6.628-4.6-6.487-3.412-2.609-3.896-.494-9.186 5.077-4.324 6.628-2.155 2.468-.277-.987 1.948.635.76 11.155.207 2.397-.07 3.949 5.928-.987 2.43.423 2.86z"/>
      <path d="M711 263.505l.886 1.469 3.684-.734h3.131l3.4 2.785 7.226-1.27 5.313-3.061 1.36-2.065-.206-2.663-4.775-3.458-6.404.062-.538 3.519-6.736 3.182-5.313.169z"/>
    </g>
  </g>
</svg>
