<svg xmlns="http://www.w3.org/2000/svg" width="59" height="73">
  <g fill="none" fill-rule="evenodd">
    <path fill="#B78061" fill-rule="nonzero" d="M32.123 40.476c5.319-.662 9.436-5.198 9.436-10.697 0-5.953-4.826-10.779-10.78-10.779C24.826 19 20 23.826 20 29.78c0 5.498 4.117 10.034 9.436 10.696v7.001h-4v2.687h4v4.686h-7.124v2.687h7.124v2.195h2.687V40.476zM22.297 29.77a8.5 8.5 0 1 1 17 0 8.5 8.5 0 0 1-17 0z"/>
    <path stroke="#B88162" stroke-width="2" d="M1 17.466v54.308h56.906V17.466L29.453 1.153 1 17.466z"/>
  </g>
</svg>
