<svg xmlns="http://www.w3.org/2000/svg" width="53" height="52">
  <g fill="#B88162" fill-rule="nonzero" stroke="#FFF">
    <path d="M51.358 4.947a1.442 1.442 0 0 0-1.711 1.127l-1.682 7.95-.652-1.127C42.88 5.232 34.768.5 25.96.5 12.313.5 1.207 11.755 1.207 25.591c0 .813.647 1.469 1.442 1.469.795 0 1.443-.656 1.443-1.469 0-12.214 9.808-22.154 21.868-22.154 7.817 0 15.01 4.216 18.915 11.03l.559.976-7.576-1.645a1.443 1.443 0 0 0-1.71 1.127 1.469 1.469 0 0 0 1.109 1.746l11.117 2.414a1.414 1.414 0 0 0 1.082-.202 1.47 1.47 0 0 0 .629-.925l2.382-11.266a1.47 1.47 0 0 0-1.11-1.745zM50.282 23.82l-.001.001c-.801.027-1.43.703-1.404 1.511.194 5.898-1.908 11.521-5.917 15.83-4.01 4.309-9.45 6.79-15.315 6.986-.245.008-.488.012-.731.012-7.625 0-14.689-3.974-18.685-10.477l-.66-1.072 1.216.328 6.784 1.83a1.45 1.45 0 0 0 1.777-1.035 1.465 1.465 0 0 0-1.026-1.793L5.286 32.965a1.443 1.443 0 0 0-1.1.145 1.461 1.461 0 0 0-.678.889L.55 45.099a1.465 1.465 0 0 0 1.403 1.844c.65 0 1.23-.441 1.401-1.085l1.958-7.345.611.969c4.556 7.216 12.466 11.605 20.99 11.605.277 0 .554-.005.827-.014 6.641-.22 12.797-3.029 17.338-7.909s6.92-11.246 6.701-17.929a1.455 1.455 0 0 0-1.497-1.414zm-.035-.998z"/>
  </g>
</svg>
