<svg xmlns="http://www.w3.org/2000/svg" width="60" height="60">
  <path fill="#B88162" fill-rule="nonzero" d="M45.974 25.402c-.799.2-1.198 1.198-.799 1.996.998 2.395 1.397 4.99 1.397 7.585 0 11.975-9.78 21.556-21.555 21.556-11.776 0-21.556-9.58-21.556-21.556a21.466 21.466 0 0 1 21.556-21.556c2.195 0 4.59.4 6.786.998.798.2 1.596-.2 1.796-.998.2-.798-.2-1.597-.998-1.796-2.395-.799-4.99-1.198-7.584-1.198-13.573 0-24.55 10.978-24.55 24.55 0 13.572 10.977 24.55 24.55 24.55 13.572 0 24.55-10.978 24.55-24.55 0-2.994-.6-5.988-1.597-8.782-.2-.599-1.198-.998-1.996-.799zm-20.957 4.591c.798 0 1.596-.599 1.596-1.597s-.599-1.596-1.596-1.596c-4.392 0-7.984 3.592-7.984 7.983s3.592 7.984 7.984 7.984c4.39 0 7.983-3.593 7.983-7.984 0-.798-.599-1.596-1.597-1.596-.997 0-1.397.998-1.397 1.796 0 2.794-2.195 4.99-4.99 4.99-2.794 0-4.99-2.196-4.99-4.99s2.196-4.99 4.99-4.99zM32.4 22.21c.4-.798 0-1.597-.798-1.996-1.996-.998-4.391-1.397-6.586-1.397C16.035 18.816 8.65 26 8.65 34.983c0 8.982 7.385 16.366 16.367 16.366 8.981 0 16.366-7.384 16.366-16.366 0-2.395-.4-4.59-1.397-6.587-.4-.798-1.198-1.197-1.996-.798-.798.4-.998 1.198-.798 1.996.798 1.796 1.197 3.593 1.197 5.389 0 7.385-5.988 13.373-13.372 13.373-7.385 0-13.373-5.988-13.373-13.373 0-7.385 5.988-13.373 13.373-13.373 1.995 0 3.792.4 5.389 1.198.798.399 1.596 0 1.995-.599zm27.145-9.98c-.2-.598-.599-.998-1.198-.998l-8.183-1.397-1.397-8.183c0-.599-.4-.998-.998-1.198-.599-.2-1.198 0-1.597.4l-9.78 9.78c-.399.399-.598.798-.399 1.397l1.597 8.383-12.574 12.574h-.2a2.215 2.215 0 0 0-2.196 2.195c0 1.198.998 2.196 2.196 2.196a2.215 2.215 0 0 0 2.195-2.196L39.786 22.41l8.184 1.596h.2c.398 0 .798-.2.997-.399l9.78-9.78c.599-.4.799-.998.599-1.597zm-20.358-.2l7.185-7.185.998 5.589-6.986 6.986-1.197-5.39zm8.782 8.783l-5.39-.998 6.986-6.986 5.39.998-6.986 6.986z"/>
</svg>
