<svg xmlns="http://www.w3.org/2000/svg" width="52" height="55">
  <g fill="#B88162" fill-rule="nonzero">
    <path d="M26 54.422c-.174 0-.347-.038-.508-.115L.674 42.489A1.182 1.182 0 0 1 0 41.422V4.785c0-.405.208-.782.55-1a1.184 1.184 0 0 1 1.14-.067L26 15.294 50.31 3.717A1.182 1.182 0 0 1 52 4.785v36.637c0 .456-.262.87-.674 1.067L26.508 54.307c-.16.077-.334.115-.508.115zM2.364 40.675L26 51.93l23.636-11.255V6.657L26.508 17.671c-.32.152-.695.152-1.015 0L2.363 6.657v34.018z"/>
    <path d="M26 12.06L5.397 2.248A1.183 1.183 0 0 1 6.414.113L26 9.442 45.586.113a1.183 1.183 0 0 1 1.016 2.136L26 12.059zM24.818 16.603h2.364v36.636h-2.364z"/>
  </g>
</svg>
