<svg xmlns="http://www.w3.org/2000/svg" width="58" height="58">
  <g fill="#B88162" fill-rule="nonzero">
    <path d="M29 58C13.01 58 0 44.99 0 29S13.01 0 29 0s29 13.01 29 29-13.01 29-29 29zm0-55.583C14.342 2.417 2.417 14.342 2.417 29c0 14.658 11.925 26.583 26.583 26.583 14.658 0 26.583-11.925 26.583-26.583C55.583 14.342 43.658 2.417 29 2.417z"/>
    <path d="M29 33.833A4.838 4.838 0 0 1 24.167 29 4.838 4.838 0 0 1 29 24.167 4.838 4.838 0 0 1 33.833 29 4.838 4.838 0 0 1 29 33.833zm0-7.25A2.42 2.42 0 0 0 26.583 29 2.42 2.42 0 0 0 29 31.417 2.42 2.42 0 0 0 31.417 29 2.42 2.42 0 0 0 29 26.583z"/>
    <path d="M31.564 27.645a1.207 1.207 0 0 1-.854-2.063l11.961-11.96a1.207 1.207 0 1 1 1.709 1.708L32.418 27.291a1.21 1.21 0 0 1-.854.354zM10.875 30.208H6.042a1.208 1.208 0 1 1 0-2.416h4.833a1.208 1.208 0 1 1 0 2.416zM7.79 38.994a1.208 1.208 0 0 1-.462-2.325l4.467-1.848a1.208 1.208 0 0 1 .923 2.233l-4.466 1.848a1.223 1.223 0 0 1-.462.092zM50.209 38.994a1.2 1.2 0 0 1-.462-.092l-4.465-1.85a1.21 1.21 0 0 1 .926-2.233l4.465 1.85a1.21 1.21 0 0 1-.464 2.325zM51.957 30.21l-4.833-.002a1.209 1.209 0 0 1 0-2.416h4.833a1.208 1.208 0 1 1 0 2.418zM45.745 23.273a1.208 1.208 0 0 1-.462-2.325l4.465-1.848a1.208 1.208 0 1 1 .923 2.233l-4.464 1.848a1.219 1.219 0 0 1-.462.091zM35.936 13.463a1.21 1.21 0 0 1-1.115-1.671l1.85-4.463a1.209 1.209 0 0 1 2.233.925l-1.85 4.464a1.214 1.214 0 0 1-1.118.745zM29 12.083a1.208 1.208 0 0 1-1.208-1.208V6.043a1.208 1.208 0 1 1 2.418 0l-.002 4.832c0 .668-.541 1.208-1.208 1.208zM22.064 13.463c-.475 0-.924-.28-1.116-.745L19.1 8.253a1.208 1.208 0 0 1 2.233-.926l1.848 4.465a1.208 1.208 0 0 1-1.117 1.671zM16.184 17.393a1.21 1.21 0 0 1-.855-.354l-3.416-3.419a1.21 1.21 0 0 1 1.71-1.708l3.416 3.418a1.21 1.21 0 0 1-.855 2.063zM12.255 23.273a1.21 1.21 0 0 1-.463-.092l-4.465-1.852a1.21 1.21 0 0 1 .926-2.233l4.465 1.852a1.21 1.21 0 0 1-.463 2.325zM39.875 48.333h-21.75c-.667 0-1.208-.54-1.208-1.208v-7.25c0-.668.541-1.208 1.208-1.208h21.75c.667 0 1.208.54 1.208 1.208v7.25c0 .668-.541 1.208-1.208 1.208zm-20.542-2.416h19.334v-4.834H19.333v4.834z"/>
  </g>
</svg>
