<svg xmlns="http://www.w3.org/2000/svg" width="56" height="50">
  <g fill="none" fill-rule="nonzero" stroke="#B88162" stroke-width="2">
    <path d="M29.247 19.765c0 1.617.41 3.13 0 4.335.152.596 1.553 13.088 1.553 13.088 1.195.521 5.016 2.464 6.578 3.412H55c0-11.55-9.379-8.25-11-13.2v-3.3c.73-.367 2.468-2.895 2.688-4.87.572-.045 1.712-1.446 1.712-2.698s-.396-1.775-.741-1.978c0 0 .741-1.654.741-3.654 0-4.006-1.082-7.7-4.4-7.7 0 0-.953-2.2-4.4-2.2-4.89 0-9.007 5.187-9.733 9.595 3.556 1.906-.62 3.997-.62 9.17zM25.2 37.062c-1.195-1.276 2.08-3.48 1.454-5.15-1.373-.688-2.533-1.5-3.054-2.86v-2.217c.418 0 1.652-.097 2.086-.194-.982-1.511-6.811-4.957-6.811-6.888 0-4.913 2.114-8.954 5.623-11.486C23.44 4.217 21.09 1 15.522 1 13.512 1 12 3.2 12 3.2.483 3.2 6.839 21.581 3.455 24.291c0 0 2.073 2.568 8.545 2.568v2.195C10.211 33.714 1 31.991 1 40.6h17.65c1.55-.937 6.55-3.538 6.55-3.538z"/>
    <path fill="#FFF" d="M31.4 33.979v-3.705s3.45-3.252 3.7-5.47c0 0 1.8-1.242 1.8-3.471 0-1.544-.689-1.778-.689-1.778s1.239-2.351 1.239-4.595c0-4.5-2.257-7.96-6.05-7.96 0 0-1.61-2.2-4.4-2.2-5.922 0-10.725 3.568-10.725 9.953 0 2.7 1.514 4.802 1.514 4.802s-.689.337-.689 1.778c0 2.8 1.8 3.472 1.8 3.472.25 2.217 3.7 5.469 3.7 5.469v3.705C20.748 39.536 9.4 35.875 9.4 48.8h35.2c0-12.969-11.348-9.264-13.2-14.821z"/>
  </g>
</svg>
