<svg xmlns="http://www.w3.org/2000/svg" viewBox="0 0 710 1512">
  <g fill="#000" fill-rule="nonzero">
    <path d="M30 30h650v1440.077l-325-187.13-325 187.13V30zM710 0H0v1521.969l355-204.404 355 204.404V0z"/>
    <path d="M340 1314h30V681h-30z"/>
    <path d="M12.281 1258.161L354.421 1061l327.58 190.161-.2 33.817-327.51-189.289-340.478 196.289zM370 8h-30v481h30zM448.722 616l-15.099 25.923 267.579 155.854-2.008-35.888z"/>
    <path d="M483.239 142h-30v299.598L567 375.324v706.264l30 18V324.085l-113.761 65.274zM226 142h30v299.598l-113.76-66.274v706.264l-30 18V324.085L226 389.359z"/>
    <path d="M256.102 619l15.1 25.923L3.621 800.777l2.008-35.888z"/>
    <path d="M355 693c60.751 0 110-49.249 110-110s-49.249-110-110-110-110 49.249-110 110 49.249 110 110 110zm0-30c-44.183 0-80-35.817-80-80s35.817-80 80-80 80 35.817 80 80-35.817 80-80 80z"/>
  </g>
</svg>
